<svg xmlns="http://www.w3.org/2000/svg" xmlns:xlink="http://www.w3.org/1999/xlink" width="500" zoomAndPan="magnify" viewBox="0 0 375 374.999991" height="500" preserveAspectRatio="xMidYMid meet" version="1.0"><defs><g/><clipPath id="fc71e3cf8b"><path d="M 40.605469 154.285156 L 108.320312 154.285156 L 108.320312 217.507812 L 40.605469 217.507812 Z M 40.605469 154.285156 " clip-rule="nonzero"/></clipPath><clipPath id="ea2d78ceef"><path d="M 37.851562 153.046875 L 96 153.046875 L 96 220 L 37.851562 220 Z M 37.851562 153.046875 " clip-rule="nonzero"/></clipPath><clipPath id="7ddeb3ec2a"><path d="M 39.613281 215.277344 L 104.582031 215.277344 L 104.582031 222.046875 L 39.613281 222.046875 Z M 39.613281 215.277344 " clip-rule="nonzero"/></clipPath></defs><g clip-path="url(#fc71e3cf8b)"><path fill="#2990d1" d="M 92.226562 217.351562 L 92.277344 217.304688 C 92.492188 217.109375 93.808594 215.851562 94 215.976562 C 96.730469 214.363281 102.273438 208.445312 103.164062 205.625 C 104.121094 202.613281 106.742188 201.34375 107.953125 195.414062 C 108.007812 195.140625 108.054688 195.339844 108.054688 194.761719 C 107.722656 194.367188 104.480469 194.574219 104.136719 194.324219 C 104.121094 194.3125 101.085938 194.300781 100.628906 194.222656 C 100.125 194.140625 99.660156 194.285156 98.921875 194.128906 C 98.792969 194.101562 97.035156 194.085938 96.613281 194.035156 C 96.058594 193.964844 95.285156 193.816406 94.730469 193.816406 C 94.945312 193.679688 96.15625 193.722656 96.597656 193.632812 C 97.351562 193.480469 99.460938 193.589844 100.058594 193.328125 C 100.070312 193.320312 102.476562 193.300781 103.035156 193.136719 C 104.765625 192.632812 107 193.359375 107.773438 192.371094 C 107.925781 192.175781 108.113281 192.160156 108.125 191.777344 C 108.136719 191.410156 108.144531 191.042969 108.238281 190.65625 C 108.355469 190.171875 108.3125 186.886719 108.3125 186.09375 C 108.269531 185.933594 107.558594 181.136719 107.558594 180.933594 C 107.558594 180.875 107.484375 180.425781 107.382812 179.914062 C 107.15625 178.734375 106.785156 178.671875 106.5 178.585938 C 106.277344 178.519531 106.257812 178.324219 105.445312 178.34375 C 103.945312 178.371094 101.867188 178.332031 101.554688 178.210938 C 101.011719 178 97.300781 178.230469 96.691406 178.023438 C 96.589844 177.984375 94.339844 177.867188 93.855469 177.847656 C 95.144531 177.613281 95.792969 177.695312 96.234375 177.570312 C 96.265625 177.5625 97.140625 177.566406 97.964844 177.492188 C 98.882812 177.410156 99.769531 177.253906 99.972656 177.246094 C 100.988281 177.207031 102.148438 177.179688 102.433594 177.058594 C 102.882812 176.867188 106.015625 177.296875 106.425781 177.070312 C 106.144531 176.167969 106.015625 176.570312 105.832031 175.550781 C 105.609375 174.300781 104.488281 173.496094 104.128906 171.902344 C 104.046875 171.539062 103.789062 171.277344 103.777344 171.117188 C 103.03125 170.71875 103.152344 169.714844 102.46875 169.039062 C 101.550781 168.136719 99.390625 164.230469 98.136719 163.8125 C 97.886719 163.160156 96.097656 162.171875 94.65625 161.378906 C 93.945312 160.988281 93.628906 160.550781 93.3125 160.316406 C 92.960938 160.054688 92.273438 159.664062 91.890625 159.414062 C 91.640625 159.253906 91.40625 159.050781 90.46875 159.039062 C 87.089844 159.003906 79.332031 159.214844 78.171875 159.214844 C 79.371094 158.960938 84.203125 158.398438 85.71875 158.183594 C 87.128906 157.984375 88.871094 157.796875 89.085938 157.796875 C 89.117188 157.808594 86.8125 156.621094 85.773438 156.335938 C 85.148438 156.167969 84.203125 155.824219 83.234375 155.53125 C 81.929688 155.128906 80.550781 154.886719 79.824219 154.914062 C 79.648438 154.921875 77.996094 154.652344 77.324219 154.679688 C 75.769531 154.746094 74.335938 154.316406 72.945312 154.382812 C 71.644531 154.453125 70.390625 155.019531 68.949219 155.101562 C 68.375 155.132812 66.890625 155.609375 66.265625 155.671875 C 64.386719 156.382812 62.90625 155.957031 60.667969 157.972656 C 60.398438 158.214844 56.894531 159.527344 55.257812 160.96875 C 54.207031 161.894531 51.90625 163.105469 51.125 164.277344 C 50.523438 165.179688 49.089844 165.703125 48.046875 167.371094 C 48.019531 167.410156 47.761719 167.683594 47.417969 168.054688 C 46.933594 168.570312 46.519531 169.265625 46.40625 169.972656 C 46.335938 170.402344 46.121094 170.882812 47.566406 170.953125 C 48.171875 170.980469 49.046875 171.1875 49.6875 171.1875 C 50.753906 171.1875 51.976562 171.425781 53.117188 171.425781 C 54.503906 171.425781 56.0625 171.519531 57.441406 171.519531 C 57.640625 171.519531 58.023438 171.625 58.28125 171.625 C 58.152344 171.617188 57.992188 171.726562 57.609375 171.796875 C 56.96875 171.914062 54.519531 172.109375 53.863281 172.109375 C 53.464844 172.109375 51.28125 172.144531 51.007812 172.269531 C 50.574219 172.464844 47.476562 172.246094 46.5 172.503906 C 46.285156 172.5625 45.199219 172.675781 44.960938 172.675781 C 44.660156 172.769531 43.449219 174.785156 43.402344 175.386719 C 43.375 175.746094 42.421875 177.75 42.265625 178.34375 C 41.875 179.1875 40.851562 184.089844 40.851562 184.933594 C 40.792969 185.214844 40.820312 185.253906 41.074219 185.253906 C 41.5625 185.253906 41.835938 185.285156 42.300781 185.3125 C 42.300781 185.3125 42.332031 185.3125 42.335938 185.3125 C 42.710938 185.3125 42.828125 185.316406 43.179688 185.359375 C 43.722656 185.417969 43.964844 185.476562 44.554688 185.476562 C 45.460938 185.476562 46.359375 185.519531 47.265625 185.539062 C 47.769531 185.546875 48.402344 185.703125 48.796875 185.703125 C 50.117188 185.613281 53.828125 185.394531 54.976562 185.621094 C 55.730469 185.769531 60.738281 186.257812 61.164062 186.011719 C 60.414062 186.949219 48.769531 186.136719 47.527344 186.730469 C 46.867188 187.046875 43.894531 187.097656 42.742188 187.289062 C 42.453125 187.335938 41.109375 187.203125 40.898438 187.378906 C 40.894531 188.300781 40.828125 189.171875 40.828125 190.144531 C 40.828125 190.402344 41.015625 190.515625 41.015625 191.253906 C 41.015625 191.890625 41.230469 192.378906 41.203125 193.183594 C 41.199219 193.3125 41.316406 193.851562 41.394531 193.945312 C 41.554688 194.035156 41.417969 194.839844 41.417969 195.066406 C 41.417969 196.035156 42.519531 198.363281 42.503906 198.550781 C 43.203125 198.609375 43.730469 199.019531 44.707031 199 C 45.015625 198.996094 45.984375 199.140625 46.527344 199.140625 C 47.355469 199.140625 50.34375 199.054688 50.890625 199.117188 C 50.089844 199.878906 47.199219 199.675781 45.78125 199.980469 C 45.089844 200.128906 43.71875 200.277344 43 200.277344 C 44.734375 205.917969 46.792969 205.722656 47.851562 208.210938 C 48.210938 209.054688 50.953125 212.570312 51.695312 213.078125 C 52.339844 213.882812 56.175781 216.871094 57.304688 217.351562 L 92.226562 217.351562 " fill-opacity="1" fill-rule="evenodd"/></g><g clip-path="url(#ea2d78ceef)"><path fill="#fefefe" d="M 81.972656 169.707031 C 81.902344 170.023438 81.808594 170.335938 81.6875 170.636719 C 81.832031 170.621094 81.976562 170.609375 82.125 170.605469 C 82.152344 170.4375 82.179688 170.265625 82.199219 170.09375 C 82.21875 169.925781 82.230469 169.761719 82.234375 169.601562 C 82.148438 169.636719 82.0625 169.671875 81.972656 169.707031 Z M 78.160156 161.832031 C 79.234375 162.394531 80.21875 162.976562 81.15625 163.609375 C 81.449219 163.308594 81.894531 163.171875 82.304688 163.230469 C 82.707031 163.027344 83.105469 162.988281 83.582031 163.167969 C 83.980469 163.101562 84.289062 163.152344 84.582031 163.398438 C 84.84375 163.429688 85.058594 163.488281 85.257812 163.609375 C 85.421875 163.339844 85.65625 163.125 86 163.039062 C 86.324219 162.957031 86.664062 163.015625 86.945312 163.164062 C 87.078125 163.144531 87.214844 163.144531 87.347656 163.167969 C 87.574219 163.210938 87.796875 163.320312 87.980469 163.476562 C 88.28125 163.53125 88.566406 163.6875 88.773438 163.921875 C 89 163.992188 89.203125 164.113281 89.375 164.292969 C 89.5625 164.484375 89.679688 164.703125 89.753906 164.933594 C 90.082031 164.964844 90.414062 164.992188 90.742188 165.015625 C 90.910156 165.027344 91.074219 165.035156 91.238281 165.066406 C 91.957031 165.1875 92.539062 165.628906 92.539062 166.417969 C 92.539062 166.480469 92.539062 166.546875 92.535156 166.613281 C 92.527344 166.808594 92.503906 167.003906 92.476562 167.199219 C 92.359375 168.054688 91.84375 168.5 90.960938 168.449219 C 90.507812 168.421875 90.050781 168.390625 89.59375 168.351562 C 89.53125 168.53125 89.445312 168.707031 89.328125 168.875 C 89.253906 169.191406 89.382812 170.128906 89.429688 170.429688 C 89.585938 171.515625 89.648438 172.738281 89.316406 173.800781 C 89.074219 174.570312 88.632812 175.203125 87.941406 175.632812 C 87.371094 175.988281 86.730469 176.28125 86.089844 176.480469 L 86 176.507812 C 85.328125 177.15625 84.476562 177.53125 83.589844 177.785156 C 83.214844 177.890625 82.839844 177.972656 82.457031 178.035156 C 82.222656 178.074219 81.984375 178.101562 81.753906 178.152344 C 81.664062 178.171875 81.574219 178.195312 81.484375 178.226562 C 81.195312 178.324219 80.871094 178.539062 80.617188 178.707031 C 80.546875 178.75 80.476562 178.800781 80.402344 178.851562 C 80.355469 179.164062 80.246094 179.484375 80.078125 179.761719 C 80.128906 180.195312 80.050781 180.695312 79.878906 181.113281 C 80.152344 181.527344 80.3125 182 80.4375 182.476562 C 80.472656 182.613281 80.507812 182.757812 80.542969 182.902344 C 81.316406 182.84375 82.15625 183.277344 82.636719 183.890625 C 85.050781 183.078125 87.445312 182.21875 89.808594 181.3125 C 90.230469 181.148438 90.660156 181.027344 91.109375 181.1875 C 91.546875 181.34375 91.8125 181.707031 91.960938 182.132812 L 92.15625 182.6875 C 92.476562 183.585938 92.109375 184.257812 91.230469 184.574219 C 88.625 185.507812 86.003906 186.417969 83.375 187.292969 C 84.519531 188.21875 85.703125 189.085938 86.886719 189.964844 C 87.191406 190.191406 87.492188 190.464844 87.777344 190.71875 C 88.195312 191.09375 88.605469 191.476562 89.015625 191.863281 C 89.429688 192.25 89.839844 192.644531 90.242188 193.046875 C 90.511719 193.316406 90.820312 193.617188 91.054688 193.917969 C 91.210938 194.117188 91.375 194.316406 91.539062 194.511719 C 91.671875 194.671875 91.820312 194.863281 91.96875 195.015625 C 93.359375 195.980469 94.265625 198.894531 94.265625 200.476562 C 94.277344 200.5625 94.359375 200.738281 94.394531 200.816406 C 94.507812 201.070312 94.617188 201.316406 94.707031 201.578125 C 94.976562 202.402344 94.945312 203.1875 94.527344 203.960938 C 94.410156 204.175781 94.34375 204.355469 94.257812 204.574219 C 94.101562 204.976562 93.871094 205.300781 93.601562 205.636719 C 93.457031 205.941406 93.398438 206.167969 93.070312 206.394531 C 93.066406 206.398438 93.066406 206.398438 93.0625 206.398438 C 93.0625 206.5625 93.03125 206.730469 92.960938 206.898438 C 92.832031 207.214844 92.601562 207.5625 92.390625 207.832031 C 92.261719 207.996094 92.1875 208.136719 92.136719 208.34375 C 91.996094 208.886719 91.917969 209.445312 91.476562 209.847656 C 91.285156 210.019531 91.070312 210.121094 90.839844 210.175781 C 90.484375 210.878906 90.191406 211.460938 90.191406 212.355469 C 90.191406 212.535156 90.203125 212.6875 90.328125 212.820312 C 90.566406 213.070312 90.851562 213.242188 91.101562 213.523438 C 91.367188 213.824219 92.03125 214.355469 92.382812 214.554688 C 93.046875 214.933594 93.273438 214.964844 94.007812 215.140625 C 94.457031 215.25 94.886719 215.367188 95.226562 215.707031 C 95.71875 216.203125 95.734375 216.875 95.613281 217.515625 C 95.773438 218.222656 95.335938 218.535156 94.71875 218.78125 C 94.058594 219.039062 92.847656 218.988281 92.113281 219.019531 C 91.523438 219.042969 90.949219 219.046875 90.363281 218.960938 C 89.496094 218.832031 88.835938 218.449219 88.15625 217.925781 C 88.113281 217.890625 88.054688 217.84375 87.984375 217.789062 C 87.804688 218.054688 87.5 218.21875 87.125 218.203125 L 85.566406 218.203125 L 85.519531 218.199219 C 84.355469 218.074219 84.074219 216.976562 84.21875 216.007812 C 84.238281 215.859375 84.285156 215.71875 84.355469 215.601562 C 84.300781 214.789062 84.421875 214.128906 84.773438 213.3125 C 85.085938 212.601562 85.433594 211.832031 85.5625 211.0625 C 85.640625 210.582031 85.695312 209.871094 85.683594 209.339844 C 84.804688 209.5625 83.917969 209.605469 83.03125 209.808594 C 82.757812 209.871094 82.558594 209.953125 82.308594 210.074219 C 81.578125 210.429688 81.003906 210.558594 80.191406 210.632812 C 78.996094 210.746094 77.136719 210.972656 76.289062 209.949219 C 76.035156 209.648438 75.792969 209.328125 75.582031 208.992188 C 75.398438 208.699219 75.175781 208.164062 74.949219 207.515625 C 74.464844 208.917969 73.800781 210.941406 72.410156 211.707031 C 71.296875 212.316406 69.378906 211.597656 68.328125 211.101562 C 67.429688 210.679688 66.277344 210 65.65625 209.214844 C 65.613281 209.160156 65.5625 209.109375 65.511719 209.0625 C 65.09375 208.679688 64.265625 208.394531 63.746094 208.164062 C 62.96875 207.824219 62.296875 207.441406 61.675781 206.929688 L 61.046875 207.679688 C 60.792969 208.382812 60.066406 208.847656 59.496094 209.285156 C 59.257812 209.472656 58.984375 209.753906 58.761719 209.96875 C 58.5625 210.160156 58.289062 210.410156 58.105469 210.628906 C 57.785156 211.265625 57.574219 211.941406 57.175781 212.546875 C 56.949219 212.890625 56.917969 213.308594 56.839844 213.699219 C 56.757812 214.09375 56.542969 214.476562 56.3125 214.8125 C 56.316406 214.964844 56.339844 215.152344 56.34375 215.289062 C 56.363281 215.664062 56.363281 216.039062 56.304688 216.414062 C 56.074219 217.890625 55.027344 218.613281 53.546875 218.613281 C 52.359375 218.613281 50.820312 217.824219 50.820312 216.480469 C 50.820312 215.378906 51.625 213.792969 52.035156 212.75 C 52.324219 212.015625 52.714844 211.261719 53.082031 210.5625 C 53.441406 209.878906 53.820312 209.175781 54.230469 208.519531 C 54.351562 208.332031 54.460938 208.140625 54.5625 207.945312 C 54.679688 207.722656 54.910156 207.253906 55.054688 206.886719 C 55.03125 206.855469 55.007812 206.816406 54.984375 206.777344 C 54.421875 205.734375 55.519531 204.523438 56.058594 203.710938 C 56.183594 203.519531 56.285156 203.328125 56.375 203.128906 C 55.800781 202.847656 55.222656 202.5625 54.691406 202.21875 C 54.140625 201.859375 53.65625 201.320312 53.851562 200.609375 C 54.011719 200.039062 54.515625 199.78125 55.039062 199.625 C 55.175781 199.585938 55.351562 199.550781 55.480469 199.5 C 56.148438 199.230469 56.792969 198.886719 57.433594 198.5625 C 57.808594 198.375 58.179688 198.082031 58.519531 197.835938 C 59.019531 197.472656 59.519531 197.136719 60.082031 196.871094 C 60.371094 196.734375 60.714844 196.378906 60.933594 196.152344 C 61.363281 195.707031 61.769531 195.25 62.222656 194.828125 C 62.914062 194.183594 63.832031 193.714844 64.429688 192.988281 C 64.476562 192.933594 64.519531 192.878906 64.566406 192.824219 C 62.863281 193.234375 61.152344 193.617188 59.441406 193.957031 C 57.800781 194.285156 56.152344 194.578125 54.5 194.808594 C 53.140625 194.996094 51.757812 195.148438 50.390625 195.191406 C 49.996094 195.203125 49.609375 195.035156 49.3125 194.792969 C 48.929688 194.484375 48.652344 194.015625 48.695312 193.511719 C 48.761719 192.730469 49.457031 192.363281 50.148438 192.25 C 56.460938 191.195312 62.792969 189.699219 68.980469 188.011719 L 69.066406 187.898438 C 69.238281 187.292969 69.265625 186.632812 69.28125 186.007812 C 69.292969 185.324219 69.28125 184.539062 69.503906 183.894531 C 69.617188 183.570312 69.804688 183.3125 70.046875 183.125 C 69.988281 182.890625 69.921875 182.660156 69.851562 182.429688 C 69.363281 180.816406 68.941406 179.558594 69.226562 177.855469 C 68.890625 175.9375 69.324219 174.101562 70.804688 172.757812 C 71.421875 172.199219 72.167969 171.847656 72.898438 171.480469 C 73.195312 171.332031 73.875 170.949219 74.269531 170.644531 C 74.230469 170.449219 74.203125 170.246094 74.183594 170.046875 C 73 169.738281 71.820312 169.289062 70.65625 168.714844 L 69.640625 168.214844 L 70.414062 167.386719 C 70.914062 166.851562 71.453125 166.328125 72.019531 165.820312 C 67.453125 164.988281 62.902344 164.046875 58.394531 162.96875 C 56.054688 162.410156 53.726562 161.792969 51.421875 161.113281 C 49.359375 160.5 47.300781 159.835938 45.292969 159.074219 C 43.765625 158.496094 42.164062 157.832031 40.75 157.011719 C 39.898438 156.515625 38.691406 155.726562 38.390625 154.726562 L 37.878906 153.046875 L 39.507812 153.703125 C 42.539062 154.929688 45.667969 155.976562 48.792969 156.933594 C 52.363281 158.027344 55.976562 159.003906 59.597656 159.890625 C 64.796875 161.164062 70.121094 162.300781 75.429688 163.121094 C 76.058594 162.679688 76.695312 162.257812 77.324219 161.867188 L 77.734375 161.613281 L 78.160156 161.832031 " fill-opacity="1" fill-rule="evenodd"/></g><path fill="#000000" d="M 39.191406 154.484375 C 49.300781 158.566406 65.96875 162.6875 77.613281 164.289062 L 77.796875 163.214844 L 78.511719 163.335938 L 78.339844 164.332031 C 80.175781 164.585938 88.203125 165.6875 90.683594 165.851562 C 91.0625 165.878906 91.699219 165.90625 91.699219 166.417969 C 91.699219 166.46875 91.699219 166.519531 91.695312 166.570312 C 91.6875 166.757812 91.664062 166.949219 91.644531 167.082031 C 91.59375 167.460938 91.492188 167.636719 91.011719 167.609375 C 87.117188 167.378906 81.878906 166.582031 78.046875 166.046875 L 77.835938 167.261719 L 77.121094 167.136719 L 77.335938 165.894531 C 71.09375 164.859375 64.738281 163.621094 58.589844 162.152344 C 49.125 159.886719 39.855469 156.667969 39.191406 154.484375 " fill-opacity="1" fill-rule="evenodd"/><path fill="#000000" d="M 91.167969 182.414062 L 91.367188 182.96875 C 91.523438 183.410156 91.40625 183.617188 90.945312 183.78125 C 84.21875 186.195312 77.28125 188.472656 70.414062 190.414062 C 62.796875 192.570312 55.011719 194.199219 50.363281 194.351562 C 49.800781 194.371094 48.851562 193.316406 50.285156 193.078125 C 62.398438 191.058594 78.671875 186.496094 90.109375 182.09375 C 90.632812 181.894531 90.960938 181.828125 91.167969 182.414062 " fill-opacity="1" fill-rule="evenodd"/><path fill="#000000" d="M 79.765625 165.65625 C 81.8125 166.726562 81.671875 170.179688 79.878906 171.882812 C 80.210938 171.882812 81.691406 171.320312 82.488281 171.472656 C 82.5 171.964844 82.417969 172.460938 82.308594 172.898438 C 82.722656 172.019531 82.921875 171.097656 83.035156 170.199219 C 83.121094 169.496094 83.007812 168.898438 83.152344 168.152344 C 82.597656 168.019531 81.378906 167.753906 81.3125 166.644531 C 81.34375 166.585938 81.4375 166.136719 81.433594 166.078125 C 81.429688 165.917969 81.472656 164.777344 81.699219 164.28125 C 81.792969 164.074219 82.214844 163.957031 82.386719 164.167969 C 82.734375 163.914062 82.949219 163.796875 83.382812 163.992188 C 83.679688 164.128906 83.839844 163.773438 84.148438 164.15625 C 84.28125 164.316406 84.644531 164.058594 85.042969 164.535156 C 85.125 164.636719 85.222656 165.167969 85.222656 165.308594 C 85.324219 165.46875 85.378906 165.960938 85.378906 166.449219 C 85.441406 165.859375 85.667969 165.3125 85.769531 164.714844 C 85.832031 164.339844 85.949219 163.917969 86.203125 163.855469 C 86.527344 163.773438 86.769531 164.039062 86.730469 164.210938 C 86.761719 164.152344 86.972656 163.953125 87.191406 163.992188 C 87.441406 164.039062 87.609375 164.28125 87.574219 164.371094 C 87.691406 164.222656 88.199219 164.308594 88.238281 164.683594 C 89.296875 164.671875 88.988281 166.101562 88.960938 166.832031 C 88.9375 167.351562 88.9375 168.007812 88.59375 168.457031 C 88.386719 168.8125 88.476562 169.714844 88.597656 170.550781 C 88.785156 171.847656 88.742188 172.816406 88.515625 173.546875 C 88.316406 174.175781 87.976562 174.621094 87.496094 174.917969 C 87.019531 175.21875 86.4375 175.492188 85.839844 175.679688 C 85.941406 174.960938 85.878906 174.308594 85.878906 174.308594 C 85.847656 174.933594 85.699219 175.625 85.4375 175.882812 C 84.875 176.433594 84.136719 176.753906 83.359375 176.976562 C 82.28125 177.28125 81.8125 177.226562 81.214844 177.429688 C 80.378906 177.710938 79.324219 178.691406 78.75 178.851562 C 78.914062 178.878906 79.34375 178.808594 79.578125 178.679688 C 79.5625 178.828125 79.46875 179.289062 79.164062 179.585938 C 79.351562 179.863281 79.222656 180.917969 78.839844 181.191406 C 79.648438 181.882812 79.644531 183.210938 80.019531 184.082031 C 80.421875 183.402344 81.675781 183.832031 82.085938 184.578125 C 82.65625 185.613281 82.316406 186.09375 82.589844 187.738281 C 83.824219 188.753906 84.875 189.519531 86.382812 190.636719 C 87.046875 191.128906 89.902344 193.808594 90.394531 194.433594 C 90.566406 194.65625 91.289062 195.542969 91.433594 195.671875 C 92.554688 196.367188 93.425781 199.082031 93.425781 200.496094 C 93.425781 201.160156 94.519531 202.203125 93.785156 203.5625 C 93.371094 204.332031 93.609375 204.289062 92.910156 205.15625 C 92.816406 205.269531 92.757812 205.589844 92.589844 205.703125 C 92.0625 206.070312 91.171875 206.207031 91.171875 206.207031 C 91.671875 206.171875 91.859375 206.175781 91.964844 206.183594 C 92.207031 206.199219 92.277344 206.359375 92.1875 206.578125 C 92.070312 206.855469 91.820312 207.195312 91.730469 207.3125 C 91.585938 207.492188 91.425781 207.730469 91.320312 208.132812 C 91.125 208.890625 91.097656 209.445312 90.304688 209.371094 C 89.886719 210.222656 89.351562 211.03125 89.351562 212.355469 C 89.351562 213.417969 89.960938 213.503906 90.46875 214.078125 C 90.789062 214.441406 91.582031 215.066406 91.96875 215.285156 C 92.777344 215.742188 92.949219 215.753906 93.808594 215.957031 C 94.542969 216.132812 95.042969 216.277344 94.753906 217.507812 C 94.769531 217.804688 94.984375 217.769531 94.410156 218 C 93.953125 218.175781 92.679688 218.15625 92.078125 218.179688 C 91.550781 218.203125 91.03125 218.210938 90.484375 218.128906 C 88.949219 217.902344 88.234375 216.597656 87.328125 216.445312 C 87.328125 216.449219 87.328125 216.902344 87.328125 217.175781 C 87.328125 217.296875 87.292969 217.375 87.148438 217.363281 L 85.609375 217.363281 C 84.953125 217.292969 84.992188 216.523438 85.050781 216.132812 C 85.082031 215.917969 85.167969 215.976562 85.234375 215.957031 C 85.117188 215.066406 85.1875 214.476562 85.546875 213.648438 C 85.882812 212.871094 86.25 212.054688 86.390625 211.199219 C 86.464844 210.753906 86.546875 209.703125 86.519531 209.140625 C 86.488281 208.566406 86.007812 208.390625 85.507812 208.519531 C 84.523438 208.773438 83.984375 208.730469 82.847656 208.988281 C 81.773438 209.230469 81.835938 209.636719 80.113281 209.796875 C 78.925781 209.90625 77.460938 210.046875 76.933594 209.414062 C 76.742188 209.183594 76.5 208.871094 76.292969 208.542969 C 75.589844 207.425781 74.53125 203.105469 74.582031 202.199219 C 74.445312 202.835938 74.585938 204.402344 74.828125 205.621094 C 73.9375 207.320312 73.976562 208.378906 73.113281 209.746094 C 72.703125 210.398438 72.355469 210.777344 72.003906 210.96875 C 70.894531 211.578125 67.324219 209.964844 66.3125 208.695312 C 65.378906 207.515625 63.394531 207.632812 61.605469 205.710938 L 60.285156 207.273438 C 60.199219 207.777344 59.492188 208.230469 58.984375 208.621094 C 58.726562 208.816406 57.464844 210.039062 57.390625 210.183594 C 57.128906 210.691406 56.820312 211.5625 56.472656 212.085938 C 56.152344 212.570312 56.125 212.992188 56.015625 213.535156 C 55.972656 213.742188 55.839844 214.03125 55.515625 214.484375 C 55.269531 214.832031 56.320312 217.773438 53.546875 217.773438 C 52.765625 217.773438 51.660156 217.265625 51.660156 216.480469 C 51.660156 215.636719 52.324219 214.3125 52.816406 213.054688 C 53.207031 212.0625 54.351562 209.90625 54.941406 208.96875 C 55.070312 208.765625 55.199219 208.546875 55.308594 208.332031 C 55.460938 208.042969 56.128906 206.625 55.984375 206.578125 C 55.058594 206.273438 56.476562 204.601562 56.757812 204.171875 C 57.027344 203.761719 57.210938 203.371094 57.4375 202.722656 C 56.601562 202.289062 55.792969 201.933594 55.152344 201.515625 C 54.6875 201.214844 54.617188 201.003906 54.664062 200.832031 C 54.761719 200.488281 55.464844 200.414062 55.796875 200.277344 C 56.464844 200.007812 57.125 199.660156 57.8125 199.3125 C 58.597656 198.917969 59.355469 198.144531 60.4375 197.628906 C 61.164062 197.289062 61.863281 196.3125 62.796875 195.441406 C 63.488281 194.796875 64.402344 194.347656 65.078125 193.519531 C 66.328125 192 68.757812 189.761719 69.828125 188.28125 C 70.3125 186.785156 69.964844 185.128906 70.296875 184.171875 C 70.425781 183.800781 70.695312 183.65625 71.007812 183.632812 C 70.707031 181.730469 69.640625 180.140625 70.082031 177.855469 C 69.726562 176.054688 70.136719 174.5 71.371094 173.378906 C 71.902344 172.898438 72.597656 172.570312 73.273438 172.230469 C 74.011719 171.863281 74.980469 171.230469 75.195312 170.910156 C 75.097656 170.597656 74.851562 169.808594 74.851562 169.042969 C 74.6875 168.726562 74.699219 167.976562 74.839844 167.640625 C 74.910156 167.472656 75.066406 167.425781 75.199219 167.460938 C 75.390625 166.828125 75.71875 166.265625 76.265625 165.921875 C 76.699219 165.644531 77.257812 165.492188 77.96875 165.492188 C 77.949219 164.625 77.992188 163.855469 78.898438 164.566406 C 79.1875 164.792969 79.832031 164.019531 79.984375 164.796875 C 80.042969 165.097656 79.964844 165.417969 79.765625 165.65625 Z M 85.792969 170.941406 C 85.636719 170.035156 85.414062 169.027344 85.296875 168.304688 C 85.222656 167.839844 85.253906 167.457031 85.257812 167.445312 C 85.3125 167.3125 85.347656 167.09375 85.367188 166.839844 C 85.375 167 85.394531 167.164062 85.4375 167.335938 C 85.59375 167.9375 86.289062 167.875 86.558594 168.542969 C 86.550781 169.714844 86.441406 170.40625 85.792969 170.941406 " fill-opacity="1" fill-rule="evenodd"/><path fill="#000000" d="M 71.027344 167.960938 C 75.683594 170.257812 80.402344 170.269531 84.457031 167.347656 C 82.230469 165.238281 80.289062 163.890625 77.769531 162.578125 C 75.421875 164.046875 72.882812 165.980469 71.027344 167.960938 " fill-opacity="1" fill-rule="evenodd"/><g clip-path="url(#7ddeb3ec2a)"><path fill="#000000" d="M 39.636719 220.035156 C 42.925781 219.265625 49.960938 217.011719 53.65625 216.527344 C 54.636719 216.398438 57.375 216.125 59.707031 215.851562 C 62.421875 215.53125 64.890625 215.375 67.632812 215.355469 C 71.269531 215.328125 75.441406 215.628906 79.078125 215.691406 C 84.226562 215.78125 89.84375 216.242188 94.40625 216.867188 C 97.53125 217.300781 101.679688 218.234375 104.417969 219.167969 C 104.4375 219.21875 101.175781 218.695312 98.125 218.628906 C 96.535156 218.59375 91.0625 217.996094 92.265625 219.371094 C 92.894531 220.09375 93.796875 221.023438 92.335938 220.859375 C 87.636719 220.335938 88.109375 219.542969 84.375 218.664062 C 81.941406 218.09375 78.578125 217.539062 81.460938 219.484375 C 82.535156 220.210938 80.304688 221.820312 76.4375 219.816406 C 75.335938 219.246094 69.695312 217.714844 71.71875 219.535156 C 72.574219 220.300781 70.542969 221.886719 68.746094 219.832031 C 67.730469 218.664062 65.761719 218.839844 64.289062 218.777344 C 63.113281 218.726562 61.980469 218.929688 60.882812 219.179688 C 59.136719 219.578125 58.203125 220.949219 56.222656 221.53125 C 54.652344 221.996094 53.242188 222.359375 52.695312 221.648438 C 52.378906 221.242188 51.457031 220.097656 53.246094 219.390625 C 54.257812 218.992188 52.835938 218.800781 52.347656 218.828125 C 50.957031 218.914062 48.910156 219.113281 47.125 219.296875 C 44.632812 219.558594 42.089844 219.984375 39.636719 220.035156 " fill-opacity="1" fill-rule="evenodd"/></g><g fill="#fefefe" fill-opacity="1"><g transform="translate(127.154142, 201.43598)"><g><path d="M 20.9375 -16.53125 C 20.957031 -16.414062 20.910156 -16.328125 20.796875 -16.265625 C 20.753906 -16.253906 20.722656 -16.238281 20.703125 -16.21875 C 20.492188 -15.988281 20.164062 -15.757812 19.71875 -15.53125 C 19.28125 -15.3125 18.828125 -15.101562 18.359375 -14.90625 C 17.890625 -14.707031 17.523438 -14.515625 17.265625 -14.328125 C 16.785156 -14.148438 16.195312 -13.847656 15.5 -13.421875 C 14.8125 -13.003906 14.082031 -12.53125 13.3125 -12 C 12.550781 -11.476562 11.832031 -10.976562 11.15625 -10.5 C 10.476562 -10.03125 9.914062 -9.664062 9.46875 -9.40625 C 9.613281 -8.9375 9.851562 -8.519531 10.1875 -8.15625 C 10.53125 -7.800781 10.890625 -7.503906 11.265625 -7.265625 C 11.378906 -7.078125 11.640625 -6.785156 12.046875 -6.390625 C 12.453125 -6.003906 12.910156 -5.582031 13.421875 -5.125 C 13.929688 -4.664062 14.398438 -4.210938 14.828125 -3.765625 C 15.265625 -3.328125 15.566406 -2.945312 15.734375 -2.625 C 15.804688 -2.664062 15.882812 -2.703125 15.96875 -2.734375 C 16.0625 -2.773438 16.132812 -2.769531 16.1875 -2.71875 C 16.5625 -2.394531 16.875 -1.988281 17.125 -1.5 C 17.382812 -1.007812 17.5625 -0.488281 17.65625 0.0625 C 17.582031 0.0703125 17.507812 0.0664062 17.4375 0.046875 C 17.375 0.0351562 17.316406 0.0195312 17.265625 0 C 17.054688 -0.0507812 16.929688 -0.03125 16.890625 0.0625 C 16.859375 0.0625 16.800781 0.0625 16.71875 0.0625 C 16.601562 0.0625 16.484375 0.0625 16.359375 0.0625 C 16.242188 0.0625 16.140625 0.0859375 16.046875 0.140625 C 15.441406 -0.234375 14.816406 -0.664062 14.171875 -1.15625 C 13.535156 -1.644531 12.929688 -2.140625 12.359375 -2.640625 C 11.785156 -3.140625 11.269531 -3.578125 10.8125 -3.953125 C 10.644531 -4.296875 10.363281 -4.671875 9.96875 -5.078125 C 9.570312 -5.492188 9.144531 -5.925781 8.6875 -6.375 C 8.226562 -6.832031 7.804688 -7.273438 7.421875 -7.703125 C 7.046875 -8.140625 6.800781 -8.554688 6.6875 -8.953125 C 7.007812 -9.140625 7.097656 -9.441406 6.953125 -9.859375 C 7.117188 -9.972656 7.300781 -10.109375 7.5 -10.265625 C 7.695312 -10.429688 7.832031 -10.585938 7.90625 -10.734375 C 8.039062 -10.960938 8.390625 -11.289062 8.953125 -11.71875 C 9.515625 -12.15625 10.203125 -12.628906 11.015625 -13.140625 C 11.828125 -13.660156 12.671875 -14.179688 13.546875 -14.703125 C 14.421875 -15.222656 15.238281 -15.679688 16 -16.078125 C 16.757812 -16.472656 17.359375 -16.742188 17.796875 -16.890625 C 18.117188 -17.003906 18.414062 -17.050781 18.6875 -17.03125 C 18.957031 -17.007812 19.21875 -16.972656 19.46875 -16.921875 C 19.613281 -16.878906 19.753906 -16.847656 19.890625 -16.828125 C 20.035156 -16.816406 20.175781 -16.820312 20.3125 -16.84375 C 20.351562 -16.707031 20.425781 -16.625 20.53125 -16.59375 C 20.644531 -16.5625 20.78125 -16.539062 20.9375 -16.53125 Z M 8.75 -20.453125 C 8.789062 -19.773438 8.765625 -19.132812 8.671875 -18.53125 C 8.578125 -17.925781 8.472656 -17.34375 8.359375 -16.78125 C 8.328125 -16.59375 8.289062 -16.398438 8.25 -16.203125 C 8.207031 -16.003906 8.171875 -15.8125 8.140625 -15.625 C 8.054688 -15.601562 7.992188 -15.566406 7.953125 -15.515625 C 7.921875 -15.472656 7.878906 -15.429688 7.828125 -15.390625 C 7.847656 -14.984375 7.789062 -14.566406 7.65625 -14.140625 C 7.519531 -13.710938 7.34375 -13.3125 7.125 -12.9375 C 7.007812 -12.976562 6.941406 -12.957031 6.921875 -12.875 C 6.878906 -12.820312 6.851562 -12.796875 6.84375 -12.796875 C 6.875 -12.515625 6.828125 -12.148438 6.703125 -11.703125 C 6.585938 -11.265625 6.484375 -10.90625 6.390625 -10.625 C 6.347656 -10.46875 6.316406 -10.375 6.296875 -10.34375 C 6.128906 -10.132812 5.984375 -9.804688 5.859375 -9.359375 C 5.734375 -8.921875 5.613281 -8.457031 5.5 -7.96875 C 5.394531 -7.476562 5.296875 -7.054688 5.203125 -6.703125 C 5.109375 -6.359375 5.015625 -6.1875 4.921875 -6.1875 C 4.929688 -5.789062 4.894531 -5.394531 4.8125 -5 C 4.726562 -4.601562 4.582031 -4.226562 4.375 -3.875 C 4.394531 -3.570312 4.382812 -3.300781 4.34375 -3.0625 C 4.3125 -2.832031 4.273438 -2.582031 4.234375 -2.3125 C 4.203125 -2.195312 4.171875 -2.066406 4.140625 -1.921875 C 4.109375 -1.785156 4.082031 -1.644531 4.0625 -1.5 C 4.007812 -1.15625 3.894531 -0.8125 3.71875 -0.46875 C 3.539062 -0.132812 3.332031 0.09375 3.09375 0.21875 C 2.851562 0.351562 2.613281 0.289062 2.375 0.03125 C 2.28125 0.195312 2.175781 0.222656 2.0625 0.109375 C 2.15625 -0.546875 2.234375 -1.125 2.296875 -1.625 C 2.367188 -2.125 2.46875 -2.617188 2.59375 -3.109375 C 2.613281 -3.179688 2.632812 -3.242188 2.65625 -3.296875 C 2.675781 -3.359375 2.703125 -3.414062 2.734375 -3.46875 C 2.773438 -3.5625 2.804688 -3.648438 2.828125 -3.734375 C 2.847656 -3.828125 2.847656 -3.929688 2.828125 -4.046875 C 2.804688 -4.210938 2.828125 -4.394531 2.890625 -4.59375 C 2.960938 -4.789062 3.035156 -4.992188 3.109375 -5.203125 C 3.179688 -5.410156 3.25 -5.613281 3.3125 -5.8125 C 3.382812 -6.007812 3.398438 -6.179688 3.359375 -6.328125 C 3.546875 -6.515625 3.691406 -6.796875 3.796875 -7.171875 C 3.898438 -7.546875 3.988281 -7.953125 4.0625 -8.390625 C 4.144531 -8.835938 4.21875 -9.257812 4.28125 -9.65625 C 4.34375 -10.050781 4.421875 -10.351562 4.515625 -10.5625 C 4.648438 -10.832031 4.773438 -11.191406 4.890625 -11.640625 C 5.003906 -12.085938 5.132812 -12.492188 5.28125 -12.859375 C 5.320312 -12.910156 5.378906 -12.960938 5.453125 -13.015625 C 5.523438 -13.078125 5.570312 -13.15625 5.59375 -13.25 C 5.664062 -13.695312 5.785156 -14.1875 5.953125 -14.71875 C 6.128906 -15.257812 6.367188 -15.769531 6.671875 -16.25 C 6.796875 -16.9375 6.976562 -17.597656 7.21875 -18.234375 C 7.46875 -18.867188 7.773438 -19.585938 8.140625 -20.390625 C 8.191406 -20.390625 8.253906 -20.421875 8.328125 -20.484375 C 8.367188 -20.515625 8.421875 -20.539062 8.484375 -20.5625 C 8.554688 -20.582031 8.644531 -20.546875 8.75 -20.453125 Z M 8.75 -20.453125 "/></g></g></g><g fill="#fefefe" fill-opacity="1"><g transform="translate(149.520978, 201.43598)"><g><path d="M 22.6875 -17.234375 C 22.625 -16.890625 22.460938 -16.46875 22.203125 -15.96875 C 21.941406 -15.476562 21.671875 -14.960938 21.390625 -14.421875 C 21.117188 -13.878906 20.925781 -13.394531 20.8125 -12.96875 C 20.757812 -12.738281 20.707031 -12.453125 20.65625 -12.109375 C 20.613281 -11.773438 20.5 -11.570312 20.3125 -11.5 C 20.175781 -11.03125 19.984375 -10.507812 19.734375 -9.9375 C 19.492188 -9.375 19.171875 -8.882812 18.765625 -8.46875 C 18.859375 -8.414062 18.78125 -8.210938 18.53125 -7.859375 C 18.289062 -7.515625 18.066406 -7.203125 17.859375 -6.921875 C 17.773438 -6.828125 17.707031 -6.738281 17.65625 -6.65625 C 17.601562 -6.582031 17.554688 -6.519531 17.515625 -6.46875 C 16.867188 -5.582031 16.222656 -4.707031 15.578125 -3.84375 C 14.929688 -2.976562 14.210938 -2.160156 13.421875 -1.390625 C 13.234375 -1.203125 13.066406 -1.015625 12.921875 -0.828125 C 12.785156 -0.648438 12.554688 -0.503906 12.234375 -0.390625 C 12.253906 -0.265625 12.242188 -0.15625 12.203125 -0.0625 C 12.160156 0.03125 12.113281 0.125 12.0625 0.21875 C 12.007812 0.320312 11.972656 0.390625 11.953125 0.421875 C 11.460938 0.535156 11.046875 0.546875 10.703125 0.453125 C 10.367188 0.359375 10.03125 0.242188 9.6875 0.109375 C 9.613281 0.078125 9.535156 0.046875 9.453125 0.015625 C 9.367188 -0.015625 9.28125 -0.046875 9.1875 -0.078125 C 8.3125 -0.890625 7.4375 -1.703125 6.5625 -2.515625 C 5.6875 -3.328125 4.867188 -4.207031 4.109375 -5.15625 C 3.347656 -6.101562 2.6875 -7.171875 2.125 -8.359375 C 2.039062 -8.703125 2.003906 -9.0625 2.015625 -9.4375 C 2.023438 -9.8125 2.125 -10.207031 2.3125 -10.625 C 2.40625 -10.675781 2.492188 -10.734375 2.578125 -10.796875 C 2.671875 -10.867188 2.753906 -10.941406 2.828125 -11.015625 C 3.203125 -11.992188 3.664062 -12.890625 4.21875 -13.703125 C 4.78125 -14.515625 5.390625 -15.289062 6.046875 -16.03125 C 6.703125 -16.769531 7.34375 -17.519531 7.96875 -18.28125 C 8.039062 -18.28125 8.109375 -18.285156 8.171875 -18.296875 C 8.242188 -18.316406 8.304688 -18.335938 8.359375 -18.359375 C 8.492188 -18.378906 8.617188 -18.394531 8.734375 -18.40625 C 8.859375 -18.414062 8.976562 -18.375 9.09375 -18.28125 C 9.132812 -18 9.082031 -17.742188 8.9375 -17.515625 C 8.800781 -17.285156 8.644531 -17.0625 8.46875 -16.84375 C 8.4375 -16.800781 8.398438 -16.753906 8.359375 -16.703125 C 8.328125 -16.660156 8.289062 -16.609375 8.25 -16.546875 C 7.707031 -15.773438 7.175781 -14.941406 6.65625 -14.046875 C 6.132812 -13.160156 5.570312 -12.328125 4.96875 -11.546875 C 4.914062 -11.359375 4.84375 -11.1875 4.75 -11.03125 C 4.65625 -10.875 4.566406 -10.71875 4.484375 -10.5625 C 4.296875 -10.257812 4.144531 -9.957031 4.03125 -9.65625 C 3.925781 -9.351562 3.929688 -9 4.046875 -8.59375 C 4.210938 -8.039062 4.523438 -7.488281 4.984375 -6.9375 C 5.441406 -6.382812 5.9375 -5.820312 6.46875 -5.25 C 7.113281 -4.59375 7.679688 -3.988281 8.171875 -3.4375 C 8.671875 -2.894531 9.257812 -2.503906 9.9375 -2.265625 C 10.414062 -2.390625 10.800781 -2.566406 11.09375 -2.796875 C 11.382812 -3.023438 11.660156 -3.253906 11.921875 -3.484375 C 12.179688 -3.722656 12.492188 -3.925781 12.859375 -4.09375 C 13.359375 -4.925781 13.910156 -5.703125 14.515625 -6.421875 C 15.117188 -7.148438 15.710938 -7.898438 16.296875 -8.671875 C 16.878906 -9.441406 17.378906 -10.28125 17.796875 -11.1875 C 18.003906 -11.425781 18.195312 -11.726562 18.375 -12.09375 C 18.550781 -12.46875 18.640625 -12.804688 18.640625 -13.109375 C 19.003906 -13.484375 19.320312 -13.9375 19.59375 -14.46875 C 19.863281 -15.007812 20.117188 -15.566406 20.359375 -16.140625 C 20.609375 -16.710938 20.882812 -17.242188 21.1875 -17.734375 C 21.144531 -17.796875 21.117188 -17.851562 21.109375 -17.90625 C 21.109375 -17.96875 21.109375 -18.035156 21.109375 -18.109375 C 21.109375 -18.179688 21.097656 -18.257812 21.078125 -18.34375 C 21.054688 -18.425781 21 -18.5 20.90625 -18.5625 C 20.882812 -18.675781 20.882812 -18.773438 20.90625 -18.859375 C 20.925781 -18.941406 20.960938 -19.03125 21.015625 -19.125 C 21.035156 -19.195312 21.054688 -19.273438 21.078125 -19.359375 C 21.109375 -19.453125 21.132812 -19.550781 21.15625 -19.65625 C 21.289062 -19.625 21.363281 -19.5625 21.375 -19.46875 C 21.394531 -19.375 21.472656 -19.28125 21.609375 -19.1875 C 21.835938 -19.050781 22.097656 -18.8125 22.390625 -18.46875 C 22.679688 -18.132812 22.78125 -17.722656 22.6875 -17.234375 Z M 22.6875 -17.234375 "/></g></g></g><g fill="#fefefe" fill-opacity="1"><g transform="translate(173.525806, 201.43598)"><g><path d="M 19.96875 -8.21875 C 19.84375 -7.988281 19.582031 -7.703125 19.1875 -7.359375 C 18.800781 -7.015625 18.382812 -6.707031 17.9375 -6.4375 C 17.5 -6.175781 17.125 -6.023438 16.8125 -5.984375 C 16.976562 -5.234375 17.207031 -4.578125 17.5 -4.015625 C 17.789062 -3.460938 17.984375 -2.90625 18.078125 -2.34375 C 18.117188 -2.289062 18.175781 -2.1875 18.25 -2.03125 C 18.414062 -1.707031 18.597656 -1.332031 18.796875 -0.90625 C 18.992188 -0.488281 19.144531 -0.078125 19.25 0.328125 C 19.351562 0.742188 19.347656 1.113281 19.234375 1.4375 C 19.066406 1.3125 18.914062 1.25 18.78125 1.25 C 18.65625 1.25 18.523438 1.253906 18.390625 1.265625 C 18.222656 1.285156 18.050781 1.273438 17.875 1.234375 C 17.707031 1.203125 17.507812 0.976562 17.28125 0.5625 C 17.175781 0.332031 17.0625 0.0390625 16.9375 -0.3125 C 16.8125 -0.664062 16.6875 -1.03125 16.5625 -1.40625 C 16.445312 -1.789062 16.320312 -2.101562 16.1875 -2.34375 C 15.90625 -2.882812 15.625 -3.375 15.34375 -3.8125 C 15.0625 -4.25 14.804688 -4.617188 14.578125 -4.921875 C 14.441406 -4.898438 14.265625 -4.851562 14.046875 -4.78125 C 13.835938 -4.71875 13.597656 -4.640625 13.328125 -4.546875 C 12.785156 -4.378906 12.226562 -4.210938 11.65625 -4.046875 C 11.082031 -3.890625 10.691406 -3.847656 10.484375 -3.921875 C 10.390625 -3.910156 10.359375 -3.863281 10.390625 -3.78125 C 10.410156 -3.726562 10.394531 -3.703125 10.34375 -3.703125 C 10.1875 -3.679688 10.015625 -3.71875 9.828125 -3.8125 C 9.640625 -3.90625 9.472656 -4.007812 9.328125 -4.125 C 9.148438 -4.238281 9.035156 -4.304688 8.984375 -4.328125 C 8.941406 -4.378906 8.863281 -4.472656 8.75 -4.609375 C 8.582031 -4.796875 8.414062 -5.015625 8.25 -5.265625 C 8.082031 -5.523438 8.015625 -5.820312 8.046875 -6.15625 C 8.390625 -6.4375 8.703125 -6.835938 8.984375 -7.359375 C 9.265625 -7.878906 9.566406 -8.328125 9.890625 -8.703125 C 10.109375 -8.941406 10.394531 -9.210938 10.75 -9.515625 C 11.113281 -9.816406 11.484375 -10.082031 11.859375 -10.3125 C 12.242188 -10.550781 12.578125 -10.703125 12.859375 -10.765625 C 12.960938 -10.785156 13.066406 -10.789062 13.171875 -10.78125 C 13.273438 -10.769531 13.382812 -10.753906 13.5 -10.734375 C 13.570312 -10.710938 13.648438 -10.695312 13.734375 -10.6875 C 13.828125 -10.675781 13.910156 -10.671875 13.984375 -10.671875 C 14.054688 -10.484375 14.160156 -10.367188 14.296875 -10.328125 C 14.441406 -10.296875 14.535156 -10.234375 14.578125 -10.140625 C 14.648438 -9.765625 14.773438 -9.457031 14.953125 -9.21875 C 15.140625 -8.988281 15.328125 -8.710938 15.515625 -8.390625 C 15.984375 -8.429688 16.367188 -8.617188 16.671875 -8.953125 C 16.984375 -9.296875 17.238281 -9.570312 17.4375 -9.78125 C 17.4375 -10.09375 17.332031 -10.550781 17.125 -11.15625 C 16.914062 -11.757812 16.648438 -12.414062 16.328125 -13.125 C 16.003906 -13.84375 15.671875 -14.539062 15.328125 -15.21875 C 14.992188 -15.90625 14.691406 -16.492188 14.421875 -16.984375 C 14.148438 -17.472656 13.957031 -17.789062 13.84375 -17.9375 C 13.28125 -17.238281 12.660156 -16.425781 11.984375 -15.5 C 11.316406 -14.582031 10.628906 -13.601562 9.921875 -12.5625 C 9.222656 -11.53125 8.550781 -10.488281 7.90625 -9.4375 C 7.269531 -8.394531 6.707031 -7.40625 6.21875 -6.46875 C 5.78125 -5.632812 5.289062 -4.800781 4.75 -3.96875 C 4.21875 -3.132812 3.707031 -2.367188 3.21875 -1.671875 C 2.9375 -1.273438 2.578125 -0.875 2.140625 -0.46875 C 1.710938 -0.0625 1.207031 0.164062 0.625 0.21875 C 0.90625 -0.34375 1.25 -1.019531 1.65625 -1.8125 C 2.070312 -2.613281 2.507812 -3.40625 2.96875 -4.1875 C 3.4375 -4.976562 3.867188 -5.632812 4.265625 -6.15625 C 4.285156 -6.226562 4.421875 -6.503906 4.671875 -6.984375 C 4.929688 -7.472656 5.25 -8.0625 5.625 -8.75 C 6 -9.445312 6.390625 -10.15625 6.796875 -10.875 C 7.203125 -11.59375 7.554688 -12.226562 7.859375 -12.78125 C 8.171875 -13.332031 8.394531 -13.695312 8.53125 -13.875 C 8.644531 -14.039062 8.847656 -14.304688 9.140625 -14.671875 C 9.429688 -15.046875 9.734375 -15.441406 10.046875 -15.859375 C 10.367188 -16.285156 10.648438 -16.679688 10.890625 -17.046875 C 11.128906 -17.410156 11.253906 -17.6875 11.265625 -17.875 C 11.492188 -18.164062 11.71875 -18.476562 11.9375 -18.8125 C 12.164062 -19.15625 12.429688 -19.429688 12.734375 -19.640625 C 13.117188 -19.898438 13.425781 -20 13.65625 -19.9375 C 13.894531 -19.882812 14.097656 -19.8125 14.265625 -19.71875 C 14.335938 -19.675781 14.414062 -19.632812 14.5 -19.59375 C 14.59375 -19.5625 14.675781 -19.546875 14.75 -19.546875 C 15.125 -19.117188 15.5 -18.679688 15.875 -18.234375 C 16.25 -17.796875 16.585938 -17.320312 16.890625 -16.8125 C 17.253906 -15.851562 17.644531 -14.921875 18.0625 -14.015625 C 18.488281 -13.109375 18.878906 -12.179688 19.234375 -11.234375 C 19.597656 -10.296875 19.84375 -9.289062 19.96875 -8.21875 Z M 13.75 -7.234375 C 13.675781 -7.515625 13.566406 -7.769531 13.421875 -8 C 13.285156 -8.238281 13.171875 -8.488281 13.078125 -8.75 C 12.421875 -8.4375 11.832031 -8.039062 11.3125 -7.5625 C 10.789062 -7.082031 10.390625 -6.484375 10.109375 -5.765625 C 10.265625 -5.609375 10.453125 -5.570312 10.671875 -5.65625 C 10.898438 -5.75 11.070312 -5.84375 11.1875 -5.9375 C 11.238281 -5.820312 11.304688 -5.773438 11.390625 -5.796875 C 11.484375 -5.828125 11.566406 -5.863281 11.640625 -5.90625 C 11.710938 -5.9375 11.769531 -5.960938 11.8125 -5.984375 C 11.8125 -5.859375 11.757812 -5.75 11.65625 -5.65625 C 11.550781 -5.570312 11.441406 -5.503906 11.328125 -5.453125 C 11.234375 -5.410156 11.160156 -5.363281 11.109375 -5.3125 C 11.066406 -5.269531 11.09375 -5.210938 11.1875 -5.140625 C 11.46875 -5.304688 11.738281 -5.445312 12 -5.5625 C 12.269531 -5.675781 12.507812 -5.78125 12.71875 -5.875 C 13.09375 -6.039062 13.375 -6.1875 13.5625 -6.3125 C 13.75 -6.4375 13.796875 -6.59375 13.703125 -6.78125 C 13.660156 -6.757812 13.566406 -6.703125 13.421875 -6.609375 C 13.265625 -6.535156 13.109375 -6.453125 12.953125 -6.359375 C 12.796875 -6.265625 12.6875 -6.226562 12.625 -6.25 C 12.476562 -6.050781 12.320312 -5.960938 12.15625 -5.984375 C 12 -6.003906 11.921875 -6.109375 11.921875 -6.296875 C 12.296875 -6.390625 12.613281 -6.535156 12.875 -6.734375 C 13.144531 -6.929688 13.4375 -7.097656 13.75 -7.234375 Z M 13.75 -7.234375 "/></g></g></g><g fill="#fefefe" fill-opacity="1"><g transform="translate(196.118586, 201.43598)"><g><path d="M 18.21875 -2.234375 C 18.21875 -2.023438 18.210938 -1.816406 18.203125 -1.609375 C 18.191406 -1.398438 18.179688 -1.179688 18.171875 -0.953125 C 18.148438 -0.828125 18.132812 -0.695312 18.125 -0.5625 C 18.113281 -0.4375 18.109375 -0.296875 18.109375 -0.140625 C 18.015625 0.046875 17.863281 0.175781 17.65625 0.25 C 17.445312 0.332031 17.242188 0.390625 17.046875 0.421875 C 16.847656 0.460938 16.710938 0.546875 16.640625 0.671875 C 16.484375 0.671875 16.363281 0.640625 16.28125 0.578125 C 16.195312 0.515625 16.128906 0.445312 16.078125 0.375 C 16.035156 0.3125 15.988281 0.257812 15.9375 0.21875 C 15.894531 0.1875 15.835938 0.179688 15.765625 0.203125 C 15.109375 -0.347656 14.476562 -0.9375 13.875 -1.5625 C 13.269531 -2.195312 12.648438 -2.804688 12.015625 -3.390625 C 11.390625 -3.972656 10.679688 -4.472656 9.890625 -4.890625 C 9.703125 -4.984375 9.585938 -5.15625 9.546875 -5.40625 C 9.503906 -5.664062 9.363281 -5.859375 9.125 -5.984375 C 9.351562 -6.265625 9.523438 -6.425781 9.640625 -6.46875 C 9.765625 -6.507812 9.859375 -6.566406 9.921875 -6.640625 C 9.992188 -6.710938 10.066406 -6.910156 10.140625 -7.234375 C 10.304688 -7.191406 10.460938 -7.226562 10.609375 -7.34375 C 10.765625 -7.457031 10.929688 -7.597656 11.109375 -7.765625 C 11.304688 -7.953125 11.523438 -8.140625 11.765625 -8.328125 C 12.015625 -8.515625 12.332031 -8.609375 12.71875 -8.609375 C 13.144531 -8.859375 13.597656 -9.054688 14.078125 -9.203125 C 14.554688 -9.359375 15.0625 -9.273438 15.59375 -8.953125 C 15.632812 -9.046875 15.644531 -9.15625 15.625 -9.28125 C 15.601562 -9.40625 15.582031 -9.53125 15.5625 -9.65625 C 15.53125 -9.789062 15.515625 -9.882812 15.515625 -9.9375 C 15.472656 -10.226562 15.457031 -10.519531 15.46875 -10.8125 C 15.476562 -11.113281 15.492188 -11.410156 15.515625 -11.703125 C 15.515625 -11.898438 15.515625 -12.101562 15.515625 -12.3125 C 15.523438 -12.519531 15.53125 -12.726562 15.53125 -12.9375 C 15.53125 -13.144531 15.519531 -13.351562 15.5 -13.5625 C 15.488281 -13.769531 15.472656 -13.976562 15.453125 -14.1875 C 15.410156 -14.613281 15.375 -15.046875 15.34375 -15.484375 C 15.320312 -15.929688 15.359375 -16.363281 15.453125 -16.78125 C 15.335938 -16.875 15.269531 -17.007812 15.25 -17.1875 C 15.238281 -17.363281 15.210938 -17.519531 15.171875 -17.65625 C 14.472656 -17.113281 13.867188 -16.476562 13.359375 -15.75 C 12.847656 -15.019531 12.320312 -14.269531 11.78125 -13.5 C 11.21875 -12.726562 10.644531 -11.945312 10.0625 -11.15625 C 9.476562 -10.363281 8.835938 -9.628906 8.140625 -8.953125 C 8.117188 -8.878906 8 -8.660156 7.78125 -8.296875 C 7.5625 -7.941406 7.304688 -7.546875 7.015625 -7.109375 C 6.722656 -6.679688 6.453125 -6.3125 6.203125 -6 C 5.960938 -5.6875 5.804688 -5.53125 5.734375 -5.53125 C 5.296875 -4.644531 4.726562 -3.738281 4.03125 -2.8125 C 3.34375 -1.894531 2.640625 -1.039062 1.921875 -0.25 C 1.847656 -0.269531 1.78125 -0.269531 1.71875 -0.25 C 1.664062 -0.226562 1.617188 -0.210938 1.578125 -0.203125 C 1.503906 -0.179688 1.429688 -0.164062 1.359375 -0.15625 C 1.296875 -0.144531 1.21875 -0.148438 1.125 -0.171875 C 1.09375 -0.265625 1.078125 -0.335938 1.078125 -0.390625 C 1.078125 -0.453125 1.03125 -0.492188 0.9375 -0.515625 C 1.0625 -1.222656 1.3125 -1.847656 1.6875 -2.390625 C 2.070312 -2.941406 2.476562 -3.484375 2.90625 -4.015625 C 2.976562 -4.316406 3.09375 -4.5625 3.25 -4.75 C 3.414062 -4.9375 3.578125 -5.125 3.734375 -5.3125 C 3.898438 -5.5 4.007812 -5.734375 4.0625 -6.015625 C 4.195312 -6.171875 4.40625 -6.4375 4.6875 -6.8125 C 4.96875 -7.1875 5.269531 -7.597656 5.59375 -8.046875 C 5.914062 -8.503906 6.195312 -8.929688 6.4375 -9.328125 C 6.6875 -9.734375 6.828125 -10.023438 6.859375 -10.203125 C 7.015625 -10.140625 7.128906 -10.179688 7.203125 -10.328125 C 7.273438 -10.484375 7.296875 -10.570312 7.265625 -10.59375 C 7.878906 -11.21875 8.476562 -12.035156 9.0625 -13.046875 C 9.125 -13.085938 9.191406 -13.097656 9.265625 -13.078125 C 9.304688 -13.078125 9.332031 -13.078125 9.34375 -13.078125 C 9.332031 -13.191406 9.347656 -13.285156 9.390625 -13.359375 C 9.441406 -13.429688 9.492188 -13.5 9.546875 -13.5625 C 9.617188 -13.632812 9.6875 -13.710938 9.75 -13.796875 C 9.820312 -13.878906 9.867188 -14 9.890625 -14.15625 C 10.316406 -14.53125 10.800781 -15.085938 11.34375 -15.828125 C 11.894531 -16.578125 12.4375 -17.253906 12.96875 -17.859375 C 12.988281 -17.859375 13.015625 -17.847656 13.046875 -17.828125 C 13.109375 -17.785156 13.164062 -17.765625 13.21875 -17.765625 C 13.28125 -17.765625 13.3125 -17.851562 13.3125 -18.03125 C 13.40625 -18.289062 13.601562 -18.546875 13.90625 -18.796875 C 14.21875 -19.054688 14.507812 -19.269531 14.78125 -19.4375 C 15.207031 -19.414062 15.617188 -19.382812 16.015625 -19.34375 C 16.410156 -19.3125 16.78125 -19.132812 17.125 -18.8125 C 17.101562 -18.625 17.109375 -18.46875 17.140625 -18.34375 C 17.179688 -18.226562 17.226562 -18.113281 17.28125 -18 C 17.34375 -17.84375 17.390625 -17.671875 17.421875 -17.484375 C 17.460938 -17.296875 17.425781 -17.035156 17.3125 -16.703125 C 17.394531 -16.617188 17.457031 -16.53125 17.5 -16.4375 C 17.550781 -16.34375 17.53125 -16.234375 17.4375 -16.109375 C 17.488281 -16.046875 17.523438 -15.84375 17.546875 -15.5 C 17.578125 -15.164062 17.601562 -14.78125 17.625 -14.34375 C 17.644531 -13.914062 17.644531 -13.523438 17.625 -13.171875 C 17.601562 -12.828125 17.578125 -12.632812 17.546875 -12.59375 C 17.597656 -12.289062 17.632812 -11.90625 17.65625 -11.4375 C 17.675781 -10.96875 17.75 -10.617188 17.875 -10.390625 C 17.769531 -10.171875 17.71875 -9.953125 17.71875 -9.734375 C 17.71875 -9.515625 17.734375 -9.300781 17.765625 -9.09375 C 17.785156 -8.90625 17.800781 -8.710938 17.8125 -8.515625 C 17.820312 -8.316406 17.789062 -8.125 17.71875 -7.9375 C 17.726562 -7.9375 17.753906 -7.929688 17.796875 -7.921875 C 17.847656 -7.910156 17.914062 -7.894531 18 -7.875 C 17.914062 -7.769531 17.867188 -7.671875 17.859375 -7.578125 C 17.859375 -7.492188 17.863281 -7.414062 17.875 -7.34375 C 17.894531 -7.269531 17.898438 -7.195312 17.890625 -7.125 C 17.878906 -7.0625 17.835938 -6.984375 17.765625 -6.890625 C 17.835938 -6.515625 17.90625 -6.046875 17.96875 -5.484375 C 18.039062 -4.921875 18.09375 -4.34375 18.125 -3.75 C 18.164062 -3.164062 18.195312 -2.660156 18.21875 -2.234375 Z M 16.109375 -3.734375 C 15.992188 -3.878906 15.929688 -4.066406 15.921875 -4.296875 C 15.910156 -4.535156 15.914062 -4.769531 15.9375 -5 C 15.9375 -5.132812 15.941406 -5.265625 15.953125 -5.390625 C 15.960938 -5.523438 15.957031 -5.648438 15.9375 -5.765625 C 15.914062 -5.878906 15.867188 -6.035156 15.796875 -6.234375 C 15.734375 -6.441406 15.65625 -6.617188 15.5625 -6.765625 C 15.46875 -6.921875 15.363281 -6.972656 15.25 -6.921875 C 14.78125 -6.691406 14.335938 -6.398438 13.921875 -6.046875 C 13.515625 -5.691406 13.09375 -5.363281 12.65625 -5.0625 C 12.726562 -4.945312 12.726562 -4.804688 12.65625 -4.640625 L 12.65625 -4.578125 C 13.144531 -4.085938 13.65625 -3.613281 14.1875 -3.15625 C 14.726562 -2.707031 15.320312 -2.296875 15.96875 -1.921875 C 16 -2.066406 16.015625 -2.210938 16.015625 -2.359375 C 16.015625 -2.503906 16.003906 -2.640625 15.984375 -2.765625 C 15.972656 -2.929688 15.96875 -3.09375 15.96875 -3.25 C 15.96875 -3.414062 16.015625 -3.578125 16.109375 -3.734375 Z M 16.109375 -3.734375 "/></g></g></g><g fill="#fefefe" fill-opacity="1"><g transform="translate(217.694675, 201.43598)"><g/></g></g><g fill="#fefefe" fill-opacity="1"><g transform="translate(224.754913, 201.43598)"><g><path d="M 22.375 -7.765625 C 22.300781 -7.742188 22.109375 -7.707031 21.796875 -7.65625 C 21.484375 -7.601562 21.222656 -7.554688 21.015625 -7.515625 C 20.660156 -7.472656 20.34375 -7.332031 20.0625 -7.09375 C 19.78125 -6.863281 19.476562 -6.726562 19.15625 -6.6875 C 19.082031 -6.675781 18.992188 -6.675781 18.890625 -6.6875 C 18.785156 -6.707031 18.691406 -6.726562 18.609375 -6.75 C 18.515625 -6.769531 18.460938 -6.78125 18.453125 -6.78125 L 18.421875 -6.78125 C 18.265625 -6.757812 17.976562 -6.734375 17.5625 -6.703125 C 17.15625 -6.679688 16.675781 -6.675781 16.125 -6.6875 C 16.050781 -6.675781 15.992188 -6.660156 15.953125 -6.640625 C 15.921875 -6.617188 15.882812 -6.585938 15.84375 -6.546875 C 15.789062 -6.515625 15.726562 -6.484375 15.65625 -6.453125 C 15.59375 -6.421875 15.488281 -6.425781 15.34375 -6.46875 C 15.300781 -6.050781 15.144531 -5.769531 14.875 -5.625 C 14.601562 -5.488281 14.28125 -5.289062 13.90625 -5.03125 C 13.75 -4.914062 13.617188 -4.769531 13.515625 -4.59375 C 13.410156 -4.425781 13.273438 -4.28125 13.109375 -4.15625 C 13.035156 -4.082031 12.929688 -4.023438 12.796875 -3.984375 C 12.660156 -3.941406 12.546875 -3.882812 12.453125 -3.8125 C 11.984375 -3.4375 11.421875 -3.0625 10.765625 -2.6875 C 10.117188 -2.320312 9.476562 -1.960938 8.84375 -1.609375 C 8.21875 -1.253906 7.671875 -0.878906 7.203125 -0.484375 C 6.847656 -0.273438 6.519531 -0.148438 6.21875 -0.109375 C 5.914062 -0.078125 5.632812 -0.0625 5.375 -0.0625 C 5.175781 -0.0625 4.984375 -0.0546875 4.796875 -0.046875 C 4.609375 -0.0351562 4.421875 0.00390625 4.234375 0.078125 C 4.109375 0.0234375 3.984375 -0.0625 3.859375 -0.1875 C 3.734375 -0.320312 3.671875 -0.445312 3.671875 -0.5625 C 3.597656 -0.53125 3.519531 -0.515625 3.4375 -0.515625 C 3.351562 -0.523438 3.257812 -0.539062 3.15625 -0.5625 C 3.144531 -0.5625 3.128906 -0.5625 3.109375 -0.5625 C 2.828125 -1.019531 2.628906 -1.585938 2.515625 -2.265625 C 2.398438 -2.941406 2.347656 -3.65625 2.359375 -4.40625 C 2.367188 -5.15625 2.410156 -5.867188 2.484375 -6.546875 C 2.546875 -6.984375 2.632812 -7.554688 2.75 -8.265625 C 2.875 -8.984375 3.019531 -9.757812 3.1875 -10.59375 C 3.363281 -11.425781 3.550781 -12.238281 3.75 -13.03125 C 3.945312 -13.832031 4.144531 -14.539062 4.34375 -15.15625 C 4.550781 -15.769531 4.75 -16.207031 4.9375 -16.46875 C 5.125 -16.726562 5.425781 -16.941406 5.84375 -17.109375 C 6.257812 -17.285156 6.71875 -17.40625 7.21875 -17.46875 C 7.71875 -17.539062 8.191406 -17.539062 8.640625 -17.46875 C 9.097656 -17.40625 9.457031 -17.269531 9.71875 -17.0625 C 9.34375 -16.851562 8.929688 -16.722656 8.484375 -16.671875 C 8.046875 -16.628906 7.632812 -16.570312 7.25 -16.5 C 6.863281 -16.4375 6.566406 -16.285156 6.359375 -16.046875 C 6.171875 -15.816406 5.976562 -15.375 5.78125 -14.71875 C 5.582031 -14.0625 5.390625 -13.285156 5.203125 -12.390625 C 5.015625 -11.492188 4.835938 -10.566406 4.671875 -9.609375 C 4.515625 -8.648438 4.382812 -7.753906 4.28125 -6.921875 C 4.175781 -6.085938 4.101562 -5.425781 4.0625 -4.9375 C 4.050781 -4.632812 4.046875 -4.351562 4.046875 -4.09375 C 4.054688 -3.832031 4.070312 -3.578125 4.09375 -3.328125 C 4.113281 -3.117188 4.128906 -2.914062 4.140625 -2.71875 C 4.148438 -2.519531 4.15625 -2.3125 4.15625 -2.09375 C 4.550781 -2.070312 4.910156 -2.128906 5.234375 -2.265625 C 5.566406 -2.410156 5.882812 -2.5625 6.1875 -2.71875 C 6.332031 -2.789062 6.472656 -2.863281 6.609375 -2.9375 C 6.742188 -3.007812 6.875 -3.066406 7 -3.109375 C 7.320312 -3.222656 7.660156 -3.414062 8.015625 -3.6875 C 8.378906 -3.957031 8.738281 -4.238281 9.09375 -4.53125 C 9.457031 -4.820312 9.785156 -5.046875 10.078125 -5.203125 C 10.097656 -5.210938 10.144531 -5.238281 10.21875 -5.28125 C 10.351562 -5.351562 10.519531 -5.429688 10.71875 -5.515625 C 10.914062 -5.609375 11.09375 -5.632812 11.25 -5.59375 C 11.4375 -5.820312 11.664062 -6.007812 11.9375 -6.15625 C 12.207031 -6.3125 12.410156 -6.519531 12.546875 -6.78125 C 12.523438 -6.820312 12.394531 -6.738281 12.15625 -6.53125 C 11.925781 -6.320312 11.765625 -6.171875 11.671875 -6.078125 C 11.609375 -6.109375 11.644531 -6.195312 11.78125 -6.34375 C 11.914062 -6.5 12.054688 -6.644531 12.203125 -6.78125 C 12.296875 -6.851562 12.367188 -6.914062 12.421875 -6.96875 C 12.484375 -7.03125 12.523438 -7.082031 12.546875 -7.125 C 12.085938 -7.363281 11.640625 -7.609375 11.203125 -7.859375 C 10.773438 -8.117188 10.421875 -8.457031 10.140625 -8.875 C 10.097656 -9.71875 10.097656 -10.59375 10.140625 -11.5 C 10.179688 -12.40625 10.253906 -13.253906 10.359375 -14.046875 C 10.460938 -14.847656 10.609375 -15.515625 10.796875 -16.046875 C 10.753906 -16.378906 10.773438 -16.644531 10.859375 -16.84375 C 10.941406 -17.039062 11.039062 -17.242188 11.15625 -17.453125 C 11.195312 -17.515625 11.226562 -17.554688 11.25 -17.578125 C 11.226562 -17.648438 11.226562 -17.742188 11.25 -17.859375 C 11.257812 -17.910156 11.269531 -17.960938 11.28125 -18.015625 C 11.289062 -18.078125 11.28125 -18.144531 11.25 -18.21875 C 11.507812 -18.289062 11.722656 -18.378906 11.890625 -18.484375 C 12.054688 -18.585938 12.273438 -18.734375 12.546875 -18.921875 C 13.503906 -18.660156 14.445312 -18.195312 15.375 -17.53125 C 16.3125 -16.875 17.148438 -16.09375 17.890625 -15.1875 C 18.640625 -14.289062 19.203125 -13.332031 19.578125 -12.3125 C 19.503906 -12.195312 19.425781 -12.082031 19.34375 -11.96875 C 19.269531 -11.863281 19.160156 -11.789062 19.015625 -11.75 C 19.140625 -11.425781 19.109375 -11.117188 18.921875 -10.828125 C 18.734375 -10.535156 18.519531 -10.25 18.28125 -9.96875 C 18.113281 -9.757812 17.957031 -9.554688 17.8125 -9.359375 C 17.664062 -9.160156 17.566406 -8.957031 17.515625 -8.75 C 17.816406 -8.675781 18.160156 -8.65625 18.546875 -8.6875 C 18.929688 -8.71875 19.3125 -8.757812 19.6875 -8.8125 C 19.9375 -8.832031 20.160156 -8.851562 20.359375 -8.875 C 20.554688 -8.894531 20.71875 -8.894531 20.84375 -8.875 C 21.09375 -8.851562 21.347656 -8.789062 21.609375 -8.6875 C 21.867188 -8.582031 22.066406 -8.507812 22.203125 -8.46875 C 22.179688 -8.375 22.179688 -8.300781 22.203125 -8.25 C 22.222656 -8.207031 22.253906 -8.171875 22.296875 -8.140625 C 22.328125 -8.097656 22.359375 -8.050781 22.390625 -8 C 22.421875 -7.957031 22.414062 -7.878906 22.375 -7.765625 Z M 16.921875 -12.0625 C 16.710938 -12.320312 16.585938 -12.640625 16.546875 -13.015625 C 16.515625 -13.398438 16.453125 -13.75 16.359375 -14.0625 C 16.265625 -14.382812 16.03125 -14.566406 15.65625 -14.609375 C 15.664062 -14.910156 15.570312 -15.1875 15.375 -15.4375 C 15.175781 -15.6875 15.003906 -15.8125 14.859375 -15.8125 C 14.859375 -15.8125 14.90625 -15.765625 15 -15.671875 C 15.09375 -15.578125 15.171875 -15.476562 15.234375 -15.375 C 15.304688 -15.28125 15.304688 -15.210938 15.234375 -15.171875 C 15.171875 -15.222656 15.109375 -15.285156 15.046875 -15.359375 C 14.992188 -15.441406 14.941406 -15.519531 14.890625 -15.59375 C 14.660156 -15.894531 14.398438 -16.1875 14.109375 -16.46875 C 13.816406 -16.75 13.453125 -16.851562 13.015625 -16.78125 C 12.734375 -15.800781 12.492188 -14.742188 12.296875 -13.609375 C 12.097656 -12.484375 12.039062 -11.222656 12.125 -9.828125 C 12.5 -9.640625 12.90625 -9.5 13.34375 -9.40625 C 13.789062 -9.3125 14.238281 -9.21875 14.6875 -9.125 C 14.894531 -9.3125 15.125 -9.554688 15.375 -9.859375 C 15.632812 -10.160156 15.8125 -10.472656 15.90625 -10.796875 C 16.144531 -10.734375 16.351562 -10.863281 16.53125 -11.1875 C 16.71875 -11.507812 16.847656 -11.800781 16.921875 -12.0625 Z M 16.921875 -12.0625 "/></g></g></g><g fill="#fefefe" fill-opacity="1"><g transform="translate(247.347694, 201.43598)"><g><path d="M 20.9375 -16.53125 C 20.957031 -16.414062 20.910156 -16.328125 20.796875 -16.265625 C 20.753906 -16.253906 20.722656 -16.238281 20.703125 -16.21875 C 20.492188 -15.988281 20.164062 -15.757812 19.71875 -15.53125 C 19.28125 -15.3125 18.828125 -15.101562 18.359375 -14.90625 C 17.890625 -14.707031 17.523438 -14.515625 17.265625 -14.328125 C 16.785156 -14.148438 16.195312 -13.847656 15.5 -13.421875 C 14.8125 -13.003906 14.082031 -12.53125 13.3125 -12 C 12.550781 -11.476562 11.832031 -10.976562 11.15625 -10.5 C 10.476562 -10.03125 9.914062 -9.664062 9.46875 -9.40625 C 9.613281 -8.9375 9.851562 -8.519531 10.1875 -8.15625 C 10.53125 -7.800781 10.890625 -7.503906 11.265625 -7.265625 C 11.378906 -7.078125 11.640625 -6.785156 12.046875 -6.390625 C 12.453125 -6.003906 12.910156 -5.582031 13.421875 -5.125 C 13.929688 -4.664062 14.398438 -4.210938 14.828125 -3.765625 C 15.265625 -3.328125 15.566406 -2.945312 15.734375 -2.625 C 15.804688 -2.664062 15.882812 -2.703125 15.96875 -2.734375 C 16.0625 -2.773438 16.132812 -2.769531 16.1875 -2.71875 C 16.5625 -2.394531 16.875 -1.988281 17.125 -1.5 C 17.382812 -1.007812 17.5625 -0.488281 17.65625 0.0625 C 17.582031 0.0703125 17.507812 0.0664062 17.4375 0.046875 C 17.375 0.0351562 17.316406 0.0195312 17.265625 0 C 17.054688 -0.0507812 16.929688 -0.03125 16.890625 0.0625 C 16.859375 0.0625 16.800781 0.0625 16.71875 0.0625 C 16.601562 0.0625 16.484375 0.0625 16.359375 0.0625 C 16.242188 0.0625 16.140625 0.0859375 16.046875 0.140625 C 15.441406 -0.234375 14.816406 -0.664062 14.171875 -1.15625 C 13.535156 -1.644531 12.929688 -2.140625 12.359375 -2.640625 C 11.785156 -3.140625 11.269531 -3.578125 10.8125 -3.953125 C 10.644531 -4.296875 10.363281 -4.671875 9.96875 -5.078125 C 9.570312 -5.492188 9.144531 -5.925781 8.6875 -6.375 C 8.226562 -6.832031 7.804688 -7.273438 7.421875 -7.703125 C 7.046875 -8.140625 6.800781 -8.554688 6.6875 -8.953125 C 7.007812 -9.140625 7.097656 -9.441406 6.953125 -9.859375 C 7.117188 -9.972656 7.300781 -10.109375 7.5 -10.265625 C 7.695312 -10.429688 7.832031 -10.585938 7.90625 -10.734375 C 8.039062 -10.960938 8.390625 -11.289062 8.953125 -11.71875 C 9.515625 -12.15625 10.203125 -12.628906 11.015625 -13.140625 C 11.828125 -13.660156 12.671875 -14.179688 13.546875 -14.703125 C 14.421875 -15.222656 15.238281 -15.679688 16 -16.078125 C 16.757812 -16.472656 17.359375 -16.742188 17.796875 -16.890625 C 18.117188 -17.003906 18.414062 -17.050781 18.6875 -17.03125 C 18.957031 -17.007812 19.21875 -16.972656 19.46875 -16.921875 C 19.613281 -16.878906 19.753906 -16.847656 19.890625 -16.828125 C 20.035156 -16.816406 20.175781 -16.820312 20.3125 -16.84375 C 20.351562 -16.707031 20.425781 -16.625 20.53125 -16.59375 C 20.644531 -16.5625 20.78125 -16.539062 20.9375 -16.53125 Z M 8.75 -20.453125 C 8.789062 -19.773438 8.765625 -19.132812 8.671875 -18.53125 C 8.578125 -17.925781 8.472656 -17.34375 8.359375 -16.78125 C 8.328125 -16.59375 8.289062 -16.398438 8.25 -16.203125 C 8.207031 -16.003906 8.171875 -15.8125 8.140625 -15.625 C 8.054688 -15.601562 7.992188 -15.566406 7.953125 -15.515625 C 7.921875 -15.472656 7.878906 -15.429688 7.828125 -15.390625 C 7.847656 -14.984375 7.789062 -14.566406 7.65625 -14.140625 C 7.519531 -13.710938 7.34375 -13.3125 7.125 -12.9375 C 7.007812 -12.976562 6.941406 -12.957031 6.921875 -12.875 C 6.878906 -12.820312 6.851562 -12.796875 6.84375 -12.796875 C 6.875 -12.515625 6.828125 -12.148438 6.703125 -11.703125 C 6.585938 -11.265625 6.484375 -10.90625 6.390625 -10.625 C 6.347656 -10.46875 6.316406 -10.375 6.296875 -10.34375 C 6.128906 -10.132812 5.984375 -9.804688 5.859375 -9.359375 C 5.734375 -8.921875 5.613281 -8.457031 5.5 -7.96875 C 5.394531 -7.476562 5.296875 -7.054688 5.203125 -6.703125 C 5.109375 -6.359375 5.015625 -6.1875 4.921875 -6.1875 C 4.929688 -5.789062 4.894531 -5.394531 4.8125 -5 C 4.726562 -4.601562 4.582031 -4.226562 4.375 -3.875 C 4.394531 -3.570312 4.382812 -3.300781 4.34375 -3.0625 C 4.3125 -2.832031 4.273438 -2.582031 4.234375 -2.3125 C 4.203125 -2.195312 4.171875 -2.066406 4.140625 -1.921875 C 4.109375 -1.785156 4.082031 -1.644531 4.0625 -1.5 C 4.007812 -1.15625 3.894531 -0.8125 3.71875 -0.46875 C 3.539062 -0.132812 3.332031 0.09375 3.09375 0.21875 C 2.851562 0.351562 2.613281 0.289062 2.375 0.03125 C 2.28125 0.195312 2.175781 0.222656 2.0625 0.109375 C 2.15625 -0.546875 2.234375 -1.125 2.296875 -1.625 C 2.367188 -2.125 2.46875 -2.617188 2.59375 -3.109375 C 2.613281 -3.179688 2.632812 -3.242188 2.65625 -3.296875 C 2.675781 -3.359375 2.703125 -3.414062 2.734375 -3.46875 C 2.773438 -3.5625 2.804688 -3.648438 2.828125 -3.734375 C 2.847656 -3.828125 2.847656 -3.929688 2.828125 -4.046875 C 2.804688 -4.210938 2.828125 -4.394531 2.890625 -4.59375 C 2.960938 -4.789062 3.035156 -4.992188 3.109375 -5.203125 C 3.179688 -5.410156 3.25 -5.613281 3.3125 -5.8125 C 3.382812 -6.007812 3.398438 -6.179688 3.359375 -6.328125 C 3.546875 -6.515625 3.691406 -6.796875 3.796875 -7.171875 C 3.898438 -7.546875 3.988281 -7.953125 4.0625 -8.390625 C 4.144531 -8.835938 4.21875 -9.257812 4.28125 -9.65625 C 4.34375 -10.050781 4.421875 -10.351562 4.515625 -10.5625 C 4.648438 -10.832031 4.773438 -11.191406 4.890625 -11.640625 C 5.003906 -12.085938 5.132812 -12.492188 5.28125 -12.859375 C 5.320312 -12.910156 5.378906 -12.960938 5.453125 -13.015625 C 5.523438 -13.078125 5.570312 -13.15625 5.59375 -13.25 C 5.664062 -13.695312 5.785156 -14.1875 5.953125 -14.71875 C 6.128906 -15.257812 6.367188 -15.769531 6.671875 -16.25 C 6.796875 -16.9375 6.976562 -17.597656 7.21875 -18.234375 C 7.46875 -18.867188 7.773438 -19.585938 8.140625 -20.390625 C 8.191406 -20.390625 8.253906 -20.421875 8.328125 -20.484375 C 8.367188 -20.515625 8.421875 -20.539062 8.484375 -20.5625 C 8.554688 -20.582031 8.644531 -20.546875 8.75 -20.453125 Z M 8.75 -20.453125 "/></g></g></g><g fill="#fefefe" fill-opacity="1"><g transform="translate(269.71453, 201.43598)"><g><path d="M 18.21875 -2.234375 C 18.21875 -2.023438 18.210938 -1.816406 18.203125 -1.609375 C 18.191406 -1.398438 18.179688 -1.179688 18.171875 -0.953125 C 18.148438 -0.828125 18.132812 -0.695312 18.125 -0.5625 C 18.113281 -0.4375 18.109375 -0.296875 18.109375 -0.140625 C 18.015625 0.046875 17.863281 0.175781 17.65625 0.25 C 17.445312 0.332031 17.242188 0.390625 17.046875 0.421875 C 16.847656 0.460938 16.710938 0.546875 16.640625 0.671875 C 16.484375 0.671875 16.363281 0.640625 16.28125 0.578125 C 16.195312 0.515625 16.128906 0.445312 16.078125 0.375 C 16.035156 0.3125 15.988281 0.257812 15.9375 0.21875 C 15.894531 0.1875 15.835938 0.179688 15.765625 0.203125 C 15.109375 -0.347656 14.476562 -0.9375 13.875 -1.5625 C 13.269531 -2.195312 12.648438 -2.804688 12.015625 -3.390625 C 11.390625 -3.972656 10.679688 -4.472656 9.890625 -4.890625 C 9.703125 -4.984375 9.585938 -5.15625 9.546875 -5.40625 C 9.503906 -5.664062 9.363281 -5.859375 9.125 -5.984375 C 9.351562 -6.265625 9.523438 -6.425781 9.640625 -6.46875 C 9.765625 -6.507812 9.859375 -6.566406 9.921875 -6.640625 C 9.992188 -6.710938 10.066406 -6.910156 10.140625 -7.234375 C 10.304688 -7.191406 10.460938 -7.226562 10.609375 -7.34375 C 10.765625 -7.457031 10.929688 -7.597656 11.109375 -7.765625 C 11.304688 -7.953125 11.523438 -8.140625 11.765625 -8.328125 C 12.015625 -8.515625 12.332031 -8.609375 12.71875 -8.609375 C 13.144531 -8.859375 13.597656 -9.054688 14.078125 -9.203125 C 14.554688 -9.359375 15.0625 -9.273438 15.59375 -8.953125 C 15.632812 -9.046875 15.644531 -9.15625 15.625 -9.28125 C 15.601562 -9.40625 15.582031 -9.53125 15.5625 -9.65625 C 15.53125 -9.789062 15.515625 -9.882812 15.515625 -9.9375 C 15.472656 -10.226562 15.457031 -10.519531 15.46875 -10.8125 C 15.476562 -11.113281 15.492188 -11.410156 15.515625 -11.703125 C 15.515625 -11.898438 15.515625 -12.101562 15.515625 -12.3125 C 15.523438 -12.519531 15.53125 -12.726562 15.53125 -12.9375 C 15.53125 -13.144531 15.519531 -13.351562 15.5 -13.5625 C 15.488281 -13.769531 15.472656 -13.976562 15.453125 -14.1875 C 15.410156 -14.613281 15.375 -15.046875 15.34375 -15.484375 C 15.320312 -15.929688 15.359375 -16.363281 15.453125 -16.78125 C 15.335938 -16.875 15.269531 -17.007812 15.25 -17.1875 C 15.238281 -17.363281 15.210938 -17.519531 15.171875 -17.65625 C 14.472656 -17.113281 13.867188 -16.476562 13.359375 -15.75 C 12.847656 -15.019531 12.320312 -14.269531 11.78125 -13.5 C 11.21875 -12.726562 10.644531 -11.945312 10.0625 -11.15625 C 9.476562 -10.363281 8.835938 -9.628906 8.140625 -8.953125 C 8.117188 -8.878906 8 -8.660156 7.78125 -8.296875 C 7.5625 -7.941406 7.304688 -7.546875 7.015625 -7.109375 C 6.722656 -6.679688 6.453125 -6.3125 6.203125 -6 C 5.960938 -5.6875 5.804688 -5.53125 5.734375 -5.53125 C 5.296875 -4.644531 4.726562 -3.738281 4.03125 -2.8125 C 3.34375 -1.894531 2.640625 -1.039062 1.921875 -0.25 C 1.847656 -0.269531 1.78125 -0.269531 1.71875 -0.25 C 1.664062 -0.226562 1.617188 -0.210938 1.578125 -0.203125 C 1.503906 -0.179688 1.429688 -0.164062 1.359375 -0.15625 C 1.296875 -0.144531 1.21875 -0.148438 1.125 -0.171875 C 1.09375 -0.265625 1.078125 -0.335938 1.078125 -0.390625 C 1.078125 -0.453125 1.03125 -0.492188 0.9375 -0.515625 C 1.0625 -1.222656 1.3125 -1.847656 1.6875 -2.390625 C 2.070312 -2.941406 2.476562 -3.484375 2.90625 -4.015625 C 2.976562 -4.316406 3.09375 -4.5625 3.25 -4.75 C 3.414062 -4.9375 3.578125 -5.125 3.734375 -5.3125 C 3.898438 -5.5 4.007812 -5.734375 4.0625 -6.015625 C 4.195312 -6.171875 4.40625 -6.4375 4.6875 -6.8125 C 4.96875 -7.1875 5.269531 -7.597656 5.59375 -8.046875 C 5.914062 -8.503906 6.195312 -8.929688 6.4375 -9.328125 C 6.6875 -9.734375 6.828125 -10.023438 6.859375 -10.203125 C 7.015625 -10.140625 7.128906 -10.179688 7.203125 -10.328125 C 7.273438 -10.484375 7.296875 -10.570312 7.265625 -10.59375 C 7.878906 -11.21875 8.476562 -12.035156 9.0625 -13.046875 C 9.125 -13.085938 9.191406 -13.097656 9.265625 -13.078125 C 9.304688 -13.078125 9.332031 -13.078125 9.34375 -13.078125 C 9.332031 -13.191406 9.347656 -13.285156 9.390625 -13.359375 C 9.441406 -13.429688 9.492188 -13.5 9.546875 -13.5625 C 9.617188 -13.632812 9.6875 -13.710938 9.75 -13.796875 C 9.820312 -13.878906 9.867188 -14 9.890625 -14.15625 C 10.316406 -14.53125 10.800781 -15.085938 11.34375 -15.828125 C 11.894531 -16.578125 12.4375 -17.253906 12.96875 -17.859375 C 12.988281 -17.859375 13.015625 -17.847656 13.046875 -17.828125 C 13.109375 -17.785156 13.164062 -17.765625 13.21875 -17.765625 C 13.28125 -17.765625 13.3125 -17.851562 13.3125 -18.03125 C 13.40625 -18.289062 13.601562 -18.546875 13.90625 -18.796875 C 14.21875 -19.054688 14.507812 -19.269531 14.78125 -19.4375 C 15.207031 -19.414062 15.617188 -19.382812 16.015625 -19.34375 C 16.410156 -19.3125 16.78125 -19.132812 17.125 -18.8125 C 17.101562 -18.625 17.109375 -18.46875 17.140625 -18.34375 C 17.179688 -18.226562 17.226562 -18.113281 17.28125 -18 C 17.34375 -17.84375 17.390625 -17.671875 17.421875 -17.484375 C 17.460938 -17.296875 17.425781 -17.035156 17.3125 -16.703125 C 17.394531 -16.617188 17.457031 -16.53125 17.5 -16.4375 C 17.550781 -16.34375 17.53125 -16.234375 17.4375 -16.109375 C 17.488281 -16.046875 17.523438 -15.84375 17.546875 -15.5 C 17.578125 -15.164062 17.601562 -14.78125 17.625 -14.34375 C 17.644531 -13.914062 17.644531 -13.523438 17.625 -13.171875 C 17.601562 -12.828125 17.578125 -12.632812 17.546875 -12.59375 C 17.597656 -12.289062 17.632812 -11.90625 17.65625 -11.4375 C 17.675781 -10.96875 17.75 -10.617188 17.875 -10.390625 C 17.769531 -10.171875 17.71875 -9.953125 17.71875 -9.734375 C 17.71875 -9.515625 17.734375 -9.300781 17.765625 -9.09375 C 17.785156 -8.90625 17.800781 -8.710938 17.8125 -8.515625 C 17.820312 -8.316406 17.789062 -8.125 17.71875 -7.9375 C 17.726562 -7.9375 17.753906 -7.929688 17.796875 -7.921875 C 17.847656 -7.910156 17.914062 -7.894531 18 -7.875 C 17.914062 -7.769531 17.867188 -7.671875 17.859375 -7.578125 C 17.859375 -7.492188 17.863281 -7.414062 17.875 -7.34375 C 17.894531 -7.269531 17.898438 -7.195312 17.890625 -7.125 C 17.878906 -7.0625 17.835938 -6.984375 17.765625 -6.890625 C 17.835938 -6.515625 17.90625 -6.046875 17.96875 -5.484375 C 18.039062 -4.921875 18.09375 -4.34375 18.125 -3.75 C 18.164062 -3.164062 18.195312 -2.660156 18.21875 -2.234375 Z M 16.109375 -3.734375 C 15.992188 -3.878906 15.929688 -4.066406 15.921875 -4.296875 C 15.910156 -4.535156 15.914062 -4.769531 15.9375 -5 C 15.9375 -5.132812 15.941406 -5.265625 15.953125 -5.390625 C 15.960938 -5.523438 15.957031 -5.648438 15.9375 -5.765625 C 15.914062 -5.878906 15.867188 -6.035156 15.796875 -6.234375 C 15.734375 -6.441406 15.65625 -6.617188 15.5625 -6.765625 C 15.46875 -6.921875 15.363281 -6.972656 15.25 -6.921875 C 14.78125 -6.691406 14.335938 -6.398438 13.921875 -6.046875 C 13.515625 -5.691406 13.09375 -5.363281 12.65625 -5.0625 C 12.726562 -4.945312 12.726562 -4.804688 12.65625 -4.640625 L 12.65625 -4.578125 C 13.144531 -4.085938 13.65625 -3.613281 14.1875 -3.15625 C 14.726562 -2.707031 15.320312 -2.296875 15.96875 -1.921875 C 16 -2.066406 16.015625 -2.210938 16.015625 -2.359375 C 16.015625 -2.503906 16.003906 -2.640625 15.984375 -2.765625 C 15.972656 -2.929688 15.96875 -3.09375 15.96875 -3.25 C 15.96875 -3.414062 16.015625 -3.578125 16.109375 -3.734375 Z M 16.109375 -3.734375 "/></g></g></g><g fill="#fefefe" fill-opacity="1"><g transform="translate(291.290618, 201.43598)"><g><path d="M 28.3125 -3.75 C 27.96875 -3.8125 27.734375 -3.6875 27.609375 -3.375 C 27.492188 -3.0625 27.441406 -2.8125 27.453125 -2.625 C 27.359375 -2.644531 27.269531 -2.648438 27.1875 -2.640625 C 27.101562 -2.628906 27.023438 -2.613281 26.953125 -2.59375 C 26.816406 -2.59375 26.695312 -2.597656 26.59375 -2.609375 C 26.488281 -2.617188 26.398438 -2.679688 26.328125 -2.796875 C 26.347656 -2.941406 26.316406 -3.203125 26.234375 -3.578125 C 26.148438 -3.960938 26.03125 -4.398438 25.875 -4.890625 C 25.726562 -5.378906 25.566406 -5.863281 25.390625 -6.34375 C 25.222656 -6.820312 25.066406 -7.234375 24.921875 -7.578125 C 24.785156 -7.929688 24.679688 -8.15625 24.609375 -8.25 C 24.609375 -8.363281 24.539062 -8.660156 24.40625 -9.140625 C 24.269531 -9.617188 24.113281 -10.15625 23.9375 -10.75 C 23.757812 -11.34375 23.566406 -11.863281 23.359375 -12.3125 C 23.234375 -12.632812 23.113281 -12.890625 23 -13.078125 C 22.882812 -13.265625 22.78125 -13.347656 22.6875 -13.328125 C 22.644531 -13.609375 22.582031 -13.945312 22.5 -14.34375 C 22.414062 -14.738281 22.273438 -15.132812 22.078125 -15.53125 C 21.878906 -15.925781 21.570312 -16.238281 21.15625 -16.46875 C 20.570312 -16 19.957031 -15.394531 19.3125 -14.65625 C 18.675781 -13.925781 18.085938 -13.144531 17.546875 -12.3125 C 17.179688 -11.789062 16.847656 -11.242188 16.546875 -10.671875 C 16.535156 -10.640625 16.5 -10.578125 16.4375 -10.484375 C 16.15625 -9.929688 15.890625 -9.367188 15.640625 -8.796875 C 15.398438 -8.222656 15.359375 -7.75 15.515625 -7.375 C 15.453125 -7.257812 15.453125 -7.097656 15.515625 -6.890625 C 15.585938 -6.679688 15.671875 -6.46875 15.765625 -6.25 C 15.835938 -6.019531 15.910156 -5.796875 15.984375 -5.578125 C 16.066406 -5.359375 16.097656 -5.175781 16.078125 -5.03125 C 16.078125 -5.03125 16.078125 -5.007812 16.078125 -4.96875 C 16.078125 -4.851562 16.078125 -4.671875 16.078125 -4.421875 C 16.078125 -4.171875 16.046875 -4 15.984375 -3.90625 C 16.046875 -3.820312 16.128906 -3.773438 16.234375 -3.765625 C 16.335938 -3.753906 16.414062 -3.722656 16.46875 -3.671875 C 16.394531 -3.523438 16.382812 -3.363281 16.4375 -3.1875 C 16.5 -3.019531 16.566406 -2.851562 16.640625 -2.6875 C 16.753906 -2.457031 16.832031 -2.210938 16.875 -1.953125 C 16.925781 -1.703125 16.816406 -1.4375 16.546875 -1.15625 C 16.535156 -0.875 16.492188 -0.597656 16.421875 -0.328125 C 16.359375 -0.0664062 16.269531 0.0859375 16.15625 0.140625 C 15.757812 0.046875 15.375 0.00390625 15 0.015625 C 14.625 0.0234375 14.265625 0.046875 13.921875 0.078125 C 13.753906 0.0976562 13.585938 0.113281 13.421875 0.125 C 13.265625 0.132812 13.101562 0.140625 12.9375 0.140625 C 12.632812 0.140625 12.328125 0.101562 12.015625 0.03125 C 11.703125 -0.0390625 11.390625 -0.191406 11.078125 -0.421875 C 11.015625 -0.441406 10.941406 -0.457031 10.859375 -0.46875 C 10.773438 -0.476562 10.695312 -0.484375 10.625 -0.484375 C 10.394531 -0.503906 10.160156 -0.535156 9.921875 -0.578125 C 9.691406 -0.628906 9.539062 -0.765625 9.46875 -0.984375 C 9.46875 -1.773438 9.613281 -2.570312 9.90625 -3.375 C 10.195312 -4.175781 10.554688 -4.945312 10.984375 -5.6875 C 11.421875 -6.4375 11.835938 -7.117188 12.234375 -7.734375 C 12.441406 -8.078125 12.632812 -8.394531 12.8125 -8.6875 C 12.988281 -8.976562 13.132812 -9.238281 13.25 -9.46875 C 13.0625 -9.894531 12.835938 -10.367188 12.578125 -10.890625 C 12.328125 -11.410156 12.085938 -11.894531 11.859375 -12.34375 C 11.617188 -12.875 11.40625 -13.3125 11.21875 -13.65625 C 11.03125 -14.007812 10.9375 -14.1875 10.9375 -14.1875 C 10.65625 -14.75 10.457031 -15.191406 10.34375 -15.515625 C 10.226562 -15.847656 10.066406 -16.140625 9.859375 -16.390625 C 9.671875 -16.273438 9.503906 -16.050781 9.359375 -15.71875 C 9.222656 -15.394531 9.09375 -15.035156 8.96875 -14.640625 C 8.84375 -14.242188 8.703125 -13.878906 8.546875 -13.546875 C 8.398438 -13.210938 8.222656 -12.988281 8.015625 -12.875 L 7.65625 -12.34375 C 7.351562 -11.894531 6.960938 -11.316406 6.484375 -10.609375 C 6.003906 -9.898438 5.53125 -9.179688 5.0625 -8.453125 C 4.601562 -7.734375 4.222656 -7.097656 3.921875 -6.546875 C 3.753906 -6.253906 3.566406 -5.953125 3.359375 -5.640625 C 3.148438 -5.328125 2.914062 -5.046875 2.65625 -4.796875 C 2.539062 -4.691406 2.335938 -4.535156 2.046875 -4.328125 C 1.753906 -4.117188 1.453125 -3.929688 1.140625 -3.765625 C 0.828125 -3.609375 0.578125 -3.53125 0.390625 -3.53125 C 0.921875 -4.53125 1.46875 -5.566406 2.03125 -6.640625 C 2.59375 -7.710938 3.148438 -8.75 3.703125 -9.75 C 4.265625 -10.75 4.78125 -11.613281 5.25 -12.34375 C 5.4375 -12.625 5.613281 -12.878906 5.78125 -13.109375 C 5.957031 -13.335938 6.117188 -13.546875 6.265625 -13.734375 C 6.535156 -14.046875 6.796875 -14.414062 7.046875 -14.84375 C 7.304688 -15.269531 7.523438 -15.6875 7.703125 -16.09375 C 7.878906 -16.507812 7.984375 -16.851562 8.015625 -17.125 C 8.097656 -17.15625 8.234375 -17.269531 8.421875 -17.46875 C 8.609375 -17.664062 8.789062 -17.875 8.96875 -18.09375 C 9.144531 -18.3125 9.234375 -18.445312 9.234375 -18.5 C 9.398438 -18.476562 9.554688 -18.472656 9.703125 -18.484375 C 9.859375 -18.492188 10.003906 -18.507812 10.140625 -18.53125 C 10.296875 -18.550781 10.4375 -18.5625 10.5625 -18.5625 C 10.695312 -18.5625 10.8125 -18.539062 10.90625 -18.5 C 10.90625 -18.382812 10.941406 -18.179688 11.015625 -17.890625 C 11.085938 -17.597656 11.179688 -17.285156 11.296875 -16.953125 C 11.410156 -16.628906 11.523438 -16.347656 11.640625 -16.109375 C 11.753906 -15.878906 11.847656 -15.773438 11.921875 -15.796875 C 12.242188 -15.453125 12.457031 -15.09375 12.5625 -14.71875 C 12.675781 -14.34375 12.804688 -13.960938 12.953125 -13.578125 C 13.097656 -13.203125 13.359375 -12.828125 13.734375 -12.453125 C 13.710938 -12.441406 13.703125 -12.421875 13.703125 -12.390625 C 13.703125 -12.359375 13.691406 -12.332031 13.671875 -12.3125 C 13.597656 -12.144531 13.59375 -11.984375 13.65625 -11.828125 C 13.71875 -11.679688 13.800781 -11.539062 13.90625 -11.40625 C 13.9375 -11.351562 13.96875 -11.296875 14 -11.234375 C 14.03125 -11.179688 14.050781 -11.128906 14.0625 -11.078125 C 14.195312 -11.171875 14.304688 -11.289062 14.390625 -11.4375 C 14.472656 -11.59375 14.554688 -11.742188 14.640625 -11.890625 C 14.878906 -11.890625 15.140625 -12.03125 15.421875 -12.3125 C 15.648438 -12.539062 15.851562 -12.804688 16.03125 -13.109375 C 16.207031 -13.410156 16.304688 -13.644531 16.328125 -13.8125 C 16.679688 -14.070312 16.984375 -14.398438 17.234375 -14.796875 C 17.492188 -15.191406 17.765625 -15.582031 18.046875 -15.96875 C 18.328125 -16.351562 18.664062 -16.632812 19.0625 -16.8125 C 19.03125 -16.84375 19.039062 -16.898438 19.09375 -16.984375 C 19.164062 -17.054688 19.1875 -17.128906 19.15625 -17.203125 C 18.550781 -16.847656 18.050781 -16.378906 17.65625 -15.796875 C 17.257812 -15.210938 16.863281 -14.632812 16.46875 -14.0625 C 16.226562 -14.0625 16.050781 -13.921875 15.9375 -13.640625 C 15.820312 -13.359375 15.679688 -13.078125 15.515625 -12.796875 C 15.472656 -12.753906 15.421875 -12.742188 15.359375 -12.765625 C 15.304688 -12.785156 15.289062 -12.832031 15.3125 -12.90625 C 15.632812 -13.414062 15.992188 -13.957031 16.390625 -14.53125 C 16.785156 -15.101562 17.210938 -15.65625 17.671875 -16.1875 C 18.128906 -16.71875 18.59375 -17.160156 19.0625 -17.515625 C 19.25 -17.660156 19.453125 -17.800781 19.671875 -17.9375 C 19.890625 -18.070312 20.035156 -18.234375 20.109375 -18.421875 C 20.171875 -18.359375 20.253906 -18.316406 20.359375 -18.296875 C 20.460938 -18.285156 20.539062 -18.242188 20.59375 -18.171875 C 20.738281 -18.316406 20.992188 -18.421875 21.359375 -18.484375 C 21.734375 -18.554688 22.015625 -18.476562 22.203125 -18.25 C 22.273438 -18.34375 22.34375 -18.414062 22.40625 -18.46875 C 22.476562 -18.53125 22.539062 -18.570312 22.59375 -18.59375 C 22.769531 -18.550781 22.878906 -18.453125 22.921875 -18.296875 C 22.972656 -18.148438 23.023438 -18 23.078125 -17.84375 C 23.140625 -17.695312 23.253906 -17.613281 23.421875 -17.59375 C 23.472656 -17.382812 23.53125 -17.15625 23.59375 -16.90625 C 23.664062 -16.65625 23.769531 -16.507812 23.90625 -16.46875 C 23.84375 -16.414062 23.8125 -16.335938 23.8125 -16.234375 C 23.8125 -16.128906 23.785156 -16.046875 23.734375 -15.984375 C 23.765625 -15.972656 23.8125 -15.9375 23.875 -15.875 C 23.925781 -15.820312 23.984375 -15.773438 24.046875 -15.734375 C 24.117188 -15.691406 24.203125 -15.703125 24.296875 -15.765625 C 24.347656 -15.597656 24.394531 -15.410156 24.4375 -15.203125 C 24.488281 -14.992188 24.5 -14.804688 24.46875 -14.640625 C 24.707031 -14.578125 24.875 -14.425781 24.96875 -14.1875 C 25.0625 -13.957031 25.128906 -13.707031 25.171875 -13.4375 C 25.210938 -13.175781 25.269531 -12.953125 25.34375 -12.765625 C 25.363281 -12.734375 25.382812 -12.671875 25.40625 -12.578125 C 25.4375 -12.492188 25.472656 -12.40625 25.515625 -12.3125 C 25.523438 -12.257812 25.546875 -12.203125 25.578125 -12.140625 C 25.609375 -12.085938 25.632812 -12.035156 25.65625 -11.984375 C 25.800781 -11.597656 25.96875 -11.171875 26.15625 -10.703125 C 26.34375 -10.234375 26.484375 -9.800781 26.578125 -9.40625 C 26.671875 -9.007812 26.679688 -8.738281 26.609375 -8.59375 C 26.765625 -8.40625 26.929688 -8.117188 27.109375 -7.734375 C 27.285156 -7.359375 27.421875 -7.125 27.515625 -7.03125 C 27.648438 -7.050781 27.738281 -6.957031 27.78125 -6.75 C 27.832031 -6.539062 27.863281 -6.304688 27.875 -6.046875 C 27.894531 -5.796875 27.925781 -5.566406 27.96875 -5.359375 C 28.019531 -5.160156 28.101562 -5.050781 28.21875 -5.03125 C 28.164062 -4.613281 28.148438 -4.335938 28.171875 -4.203125 C 28.203125 -4.078125 28.238281 -3.984375 28.28125 -3.921875 C 28.3125 -3.867188 28.320312 -3.8125 28.3125 -3.75 Z M 14.65625 -2.125 C 14.5625 -2.425781 14.5 -2.835938 14.46875 -3.359375 C 14.445312 -3.890625 14.40625 -4.429688 14.34375 -4.984375 C 14.289062 -5.535156 14.160156 -6.019531 13.953125 -6.4375 C 13.765625 -6.15625 13.519531 -5.765625 13.21875 -5.265625 C 12.914062 -4.765625 12.617188 -4.269531 12.328125 -3.78125 C 12.035156 -3.289062 11.796875 -2.890625 11.609375 -2.578125 C 11.472656 -2.328125 11.375 -2.066406 11.3125 -1.796875 C 11.25 -1.523438 11.265625 -1.285156 11.359375 -1.078125 C 11.898438 -1.171875 12.503906 -1.289062 13.171875 -1.4375 C 13.847656 -1.59375 14.34375 -1.820312 14.65625 -2.125 Z M 14.65625 -2.125 "/></g></g></g><g fill="#fefefe" fill-opacity="1"><g transform="translate(320.491767, 201.43598)"><g><path d="M 11.78125 -18.46875 C 11.625 -18.1875 11.507812 -17.945312 11.4375 -17.75 C 11.363281 -17.550781 11.269531 -17.394531 11.15625 -17.28125 C 11.175781 -16.757812 11.109375 -16.160156 10.953125 -15.484375 C 10.804688 -14.804688 10.640625 -14.15625 10.453125 -13.53125 C 10.335938 -13.113281 10.234375 -12.726562 10.140625 -12.375 C 10.046875 -12.019531 9.988281 -11.707031 9.96875 -11.4375 C 9.894531 -11.3125 9.804688 -11.003906 9.703125 -10.515625 C 9.597656 -10.023438 9.484375 -9.5 9.359375 -8.9375 C 9.242188 -8.382812 9.109375 -7.929688 8.953125 -7.578125 C 8.929688 -7.273438 8.867188 -6.863281 8.765625 -6.34375 C 8.660156 -5.820312 8.539062 -5.28125 8.40625 -4.71875 C 8.28125 -4.15625 8.160156 -3.640625 8.046875 -3.171875 C 7.929688 -2.710938 7.847656 -2.378906 7.796875 -2.171875 C 7.554688 -1.171875 7.226562 -0.492188 6.8125 -0.140625 C 6.394531 0.203125 5.734375 0.25 4.828125 0 C 4.921875 -0.226562 5.039062 -0.644531 5.1875 -1.25 C 5.34375 -1.863281 5.488281 -2.550781 5.625 -3.3125 C 5.644531 -3.414062 5.6875 -3.648438 5.75 -4.015625 C 5.8125 -4.390625 5.882812 -4.757812 5.96875 -5.125 C 6.0625 -5.488281 6.144531 -5.703125 6.21875 -5.765625 C 6.195312 -6.003906 6.226562 -6.285156 6.3125 -6.609375 C 6.394531 -6.929688 6.484375 -7.242188 6.578125 -7.546875 C 6.671875 -7.804688 6.742188 -8.046875 6.796875 -8.265625 C 6.859375 -8.484375 6.875 -8.640625 6.84375 -8.734375 C 7.03125 -9.296875 7.226562 -9.992188 7.4375 -10.828125 C 7.65625 -11.671875 7.859375 -12.539062 8.046875 -13.4375 C 8.234375 -14.332031 8.375 -15.148438 8.46875 -15.890625 C 8.5625 -16.628906 8.582031 -17.195312 8.53125 -17.59375 C 8.414062 -17.820312 8.367188 -17.96875 8.390625 -18.03125 C 8.410156 -18.101562 8.445312 -18.148438 8.5 -18.171875 C 8.539062 -18.203125 8.578125 -18.238281 8.609375 -18.28125 C 8.648438 -18.332031 8.660156 -18.4375 8.640625 -18.59375 C 8.941406 -18.644531 9.296875 -18.679688 9.703125 -18.703125 C 10.109375 -18.722656 10.492188 -18.722656 10.859375 -18.703125 C 11.222656 -18.679688 11.5 -18.648438 11.6875 -18.609375 C 11.882812 -18.578125 11.914062 -18.53125 11.78125 -18.46875 Z M 11.78125 -18.46875 "/></g></g></g></svg>