<svg xmlns="http://www.w3.org/2000/svg" xmlns:xlink="http://www.w3.org/1999/xlink" width="500" zoomAndPan="magnify" viewBox="0 0 375 374.999991" height="500" preserveAspectRatio="xMidYMid meet" version="1.0"><defs><clipPath id="3cc7a6db96"><path d="M 78.171875 75.597656 L 305.78125 75.597656 L 305.78125 288.632812 L 78.171875 288.632812 Z M 78.171875 75.597656 " clip-rule="nonzero"/></clipPath><clipPath id="af2da56d62"><path d="M 69 71.421875 L 264 71.421875 L 264 294 L 69 294 Z M 69 71.421875 " clip-rule="nonzero"/></clipPath><clipPath id="0fb92c33c6"><path d="M 74.835938 281.113281 L 293 281.113281 L 293 303.921875 L 74.835938 303.921875 Z M 74.835938 281.113281 " clip-rule="nonzero"/></clipPath></defs><g clip-path="url(#3cc7a6db96)"><path fill="#2990d1" d="M 251.683594 288.105469 L 251.859375 287.949219 C 252.582031 287.289062 257 283.042969 257.640625 283.46875 C 266.828125 278.039062 285.449219 258.097656 288.453125 248.589844 C 291.664062 238.4375 300.480469 234.160156 304.542969 214.1875 C 304.734375 213.253906 304.886719 213.9375 304.886719 211.984375 C 303.777344 210.652344 292.875 211.359375 291.722656 210.511719 C 291.664062 210.472656 281.46875 210.433594 279.925781 210.171875 C 278.238281 209.886719 276.667969 210.382812 274.195312 209.855469 C 273.761719 209.765625 267.847656 209.710938 266.429688 209.535156 C 264.570312 209.304688 261.964844 208.800781 260.105469 208.800781 C 260.816406 208.335938 264.898438 208.484375 266.378906 208.183594 C 268.914062 207.667969 276.003906 208.039062 278.011719 207.148438 C 278.046875 207.132812 286.140625 207.0625 288.019531 206.511719 C 293.832031 204.808594 301.34375 207.265625 303.941406 203.933594 C 304.457031 203.265625 305.082031 203.214844 305.125 201.929688 C 305.167969 200.6875 305.183594 199.453125 305.5 198.144531 C 305.898438 196.515625 305.761719 185.449219 305.761719 182.773438 C 305.605469 182.238281 303.21875 166.078125 303.21875 165.382812 C 303.21875 165.199219 302.964844 163.683594 302.632812 161.949219 C 301.871094 157.984375 300.617188 157.765625 299.65625 157.480469 C 298.910156 157.261719 298.84375 156.601562 296.113281 156.660156 C 291.074219 156.753906 284.09375 156.621094 283.042969 156.214844 C 281.214844 155.503906 268.742188 156.277344 266.691406 155.578125 C 266.347656 155.457031 258.78125 155.058594 257.164062 154.996094 C 261.496094 154.203125 263.664062 154.476562 265.148438 154.0625 C 265.261719 154.035156 268.195312 154.039062 270.976562 153.789062 C 274.058594 153.523438 277.035156 152.996094 277.71875 152.972656 C 281.136719 152.828125 285.039062 152.746094 285.996094 152.335938 C 287.507812 151.683594 298.027344 153.140625 299.40625 152.371094 C 298.464844 149.332031 298.035156 150.691406 297.421875 147.253906 C 296.671875 143.035156 292.894531 140.332031 291.683594 134.957031 C 291.410156 133.734375 290.546875 132.847656 290.511719 132.316406 C 288.003906 130.972656 288.410156 127.585938 286.109375 125.3125 C 283.023438 122.273438 275.765625 109.109375 271.550781 107.699219 C 270.714844 105.5 264.695312 102.167969 259.851562 99.492188 C 257.464844 98.179688 256.398438 96.707031 255.339844 95.921875 C 254.148438 95.039062 251.84375 93.71875 250.558594 92.878906 C 249.71875 92.332031 248.925781 91.648438 245.78125 91.617188 C 234.417969 91.5 208.335938 92.207031 204.441406 92.207031 C 208.472656 91.355469 224.710938 89.457031 229.808594 88.734375 C 234.546875 88.054688 240.398438 87.433594 241.128906 87.433594 C 241.234375 87.472656 233.484375 83.46875 229.984375 82.511719 C 227.886719 81.9375 224.71875 80.789062 221.460938 79.792969 C 217.070312 78.445312 212.441406 77.625 210 77.71875 C 209.410156 77.742188 203.84375 76.828125 201.585938 76.925781 C 196.367188 77.148438 191.542969 75.695312 186.875 75.933594 C 182.503906 76.15625 178.28125 78.070312 173.4375 78.347656 C 171.507812 78.449219 166.515625 80.054688 164.421875 80.265625 C 158.105469 82.667969 153.125 81.226562 145.605469 88.015625 C 144.703125 88.839844 132.921875 93.261719 127.421875 98.121094 C 123.894531 101.242188 116.152344 105.320312 113.53125 109.265625 C 111.511719 112.300781 106.691406 114.070312 103.175781 119.6875 C 103.089844 119.824219 102.21875 120.746094 101.0625 121.988281 C 99.4375 123.734375 98.042969 126.082031 97.664062 128.460938 C 97.433594 129.910156 96.710938 131.527344 101.570312 131.753906 C 103.597656 131.847656 106.539062 132.554688 108.695312 132.554688 C 112.285156 132.554688 116.386719 133.351562 120.226562 133.351562 C 124.886719 133.351562 130.128906 133.667969 134.753906 133.667969 C 135.425781 133.667969 136.714844 134.027344 137.582031 134.027344 C 137.148438 134 136.605469 134.367188 135.324219 134.605469 C 133.175781 135.003906 124.941406 135.660156 122.730469 135.660156 C 121.394531 135.660156 114.058594 135.777344 113.128906 136.195312 C 111.671875 136.851562 101.261719 136.121094 97.984375 136.984375 C 97.257812 137.179688 93.605469 137.570312 92.800781 137.570312 C 91.789062 137.878906 87.71875 144.679688 87.566406 146.703125 C 87.476562 147.914062 84.269531 154.660156 83.75 156.667969 C 82.433594 159.507812 78.988281 176.019531 78.988281 178.871094 C 78.800781 179.8125 78.886719 179.949219 79.742188 179.949219 C 81.378906 179.949219 82.300781 180.054688 83.863281 180.148438 C 83.863281 180.148438 83.976562 180.144531 83.988281 180.144531 C 85.242188 180.144531 85.636719 180.164062 86.824219 180.296875 C 88.644531 180.496094 89.457031 180.703125 91.4375 180.703125 C 94.492188 180.703125 97.507812 180.847656 100.554688 180.902344 C 102.253906 180.929688 104.378906 181.460938 105.707031 181.460938 C 110.144531 181.160156 122.605469 180.414062 126.46875 181.183594 C 129.003906 181.683594 145.835938 183.335938 147.273438 182.496094 C 144.746094 185.664062 105.605469 182.917969 101.433594 184.925781 C 99.21875 185.988281 89.21875 186.167969 85.351562 186.808594 C 84.378906 186.96875 79.867188 186.515625 79.148438 187.113281 C 79.144531 190.210938 78.910156 193.148438 78.910156 196.433594 C 78.910156 197.300781 79.542969 197.683594 79.542969 200.167969 C 79.542969 202.316406 80.269531 203.953125 80.179688 206.671875 C 80.164062 207.097656 80.550781 208.914062 80.8125 209.238281 C 81.359375 209.535156 80.890625 212.242188 80.890625 213.011719 C 80.890625 216.269531 84.597656 224.125 84.546875 224.753906 C 86.902344 224.949219 88.667969 226.335938 91.953125 226.269531 C 92.984375 226.246094 96.242188 226.746094 98.070312 226.746094 C 100.859375 226.746094 110.90625 226.457031 112.734375 226.664062 C 110.050781 229.234375 100.332031 228.542969 95.570312 229.570312 C 93.242188 230.070312 88.628906 230.566406 86.214844 230.566406 C 92.050781 249.578125 98.960938 248.925781 102.523438 257.296875 C 103.734375 260.152344 112.945312 271.988281 115.4375 273.699219 C 117.605469 276.414062 130.503906 286.484375 134.296875 288.105469 L 251.683594 288.105469 " fill-opacity="1" fill-rule="evenodd"/></g><g clip-path="url(#af2da56d62)"><path fill="#fefefe" d="M 217.21875 127.558594 C 216.980469 128.628906 216.660156 129.6875 216.257812 130.699219 C 216.746094 130.640625 217.234375 130.601562 217.726562 130.589844 C 217.824219 130.019531 217.90625 129.441406 217.976562 128.867188 C 218.050781 128.304688 218.082031 127.746094 218.101562 127.199219 C 217.804688 127.320312 217.511719 127.441406 217.21875 127.558594 Z M 204.398438 101.03125 C 208.011719 102.921875 211.328125 104.882812 214.476562 107.007812 C 215.460938 106.007812 216.957031 105.542969 218.335938 105.742188 C 219.691406 105.058594 221.023438 104.917969 222.632812 105.527344 C 223.960938 105.300781 225.007812 105.476562 225.988281 106.308594 C 226.863281 106.410156 227.585938 106.609375 228.261719 107.019531 C 228.808594 106.105469 229.59375 105.378906 230.753906 105.09375 C 231.84375 104.824219 232.984375 105.011719 233.925781 105.519531 C 234.382812 105.441406 234.84375 105.441406 235.285156 105.523438 C 236.046875 105.667969 236.796875 106.046875 237.414062 106.570312 C 238.417969 106.75 239.382812 107.28125 240.078125 108.066406 C 240.832031 108.304688 241.523438 108.714844 242.101562 109.320312 C 242.726562 109.96875 243.125 110.695312 243.367188 111.472656 C 244.476562 111.582031 245.585938 111.675781 246.6875 111.746094 C 247.25 111.785156 247.804688 111.824219 248.359375 111.921875 C 250.773438 112.332031 252.734375 113.828125 252.738281 116.480469 C 252.738281 116.695312 252.734375 116.914062 252.726562 117.132812 C 252.691406 117.792969 252.621094 118.457031 252.53125 119.109375 C 252.128906 121.992188 250.398438 123.5 247.433594 123.324219 C 245.902344 123.234375 244.367188 123.121094 242.832031 122.996094 C 242.617188 123.601562 242.332031 124.1875 241.945312 124.753906 C 241.691406 125.820312 242.128906 128.988281 242.277344 129.996094 C 242.804688 133.65625 243.015625 137.777344 241.898438 141.351562 C 241.085938 143.949219 239.597656 146.085938 237.28125 147.53125 C 235.363281 148.730469 233.210938 149.710938 231.058594 150.386719 L 230.753906 150.480469 C 228.5 152.65625 225.632812 153.929688 222.648438 154.777344 C 221.390625 155.136719 220.132812 155.414062 218.84375 155.628906 C 218.0625 155.757812 217.257812 155.851562 216.480469 156.019531 C 216.175781 156.082031 215.871094 156.160156 215.574219 156.261719 C 214.609375 156.59375 213.511719 157.316406 212.660156 157.882812 C 212.425781 158.039062 212.1875 158.207031 211.933594 158.378906 C 211.785156 159.421875 211.40625 160.503906 210.855469 161.445312 C 211.023438 162.90625 210.761719 164.585938 210.175781 166 C 211.09375 167.394531 211.632812 168.976562 212.058594 170.59375 C 212.179688 171.046875 212.289062 171.53125 212.402344 172.027344 C 215.015625 171.828125 217.839844 173.292969 219.445312 175.355469 C 227.558594 172.617188 235.613281 169.722656 243.554688 166.660156 C 244.976562 166.113281 246.417969 165.703125 247.921875 166.242188 C 249.402344 166.777344 250.285156 168 250.792969 169.433594 L 251.453125 171.300781 C 252.519531 174.332031 251.292969 176.589844 248.332031 177.65625 C 239.570312 180.804688 230.769531 183.867188 221.929688 186.816406 C 225.777344 189.9375 229.75 192.863281 233.730469 195.816406 C 234.753906 196.578125 235.773438 197.507812 236.726562 198.363281 C 238.128906 199.625 239.515625 200.914062 240.894531 202.210938 C 242.28125 203.527344 243.660156 204.855469 245.011719 206.207031 C 245.917969 207.113281 246.957031 208.128906 247.742188 209.140625 C 248.269531 209.8125 248.820312 210.476562 249.367188 211.136719 C 249.8125 211.675781 250.320312 212.328125 250.8125 212.84375 C 255.496094 216.089844 258.535156 225.910156 258.535156 231.242188 C 258.574219 231.53125 258.847656 232.117188 258.96875 232.390625 C 259.347656 233.242188 259.722656 234.074219 260.015625 234.957031 C 260.929688 237.730469 260.816406 240.382812 259.414062 242.984375 C 259.023438 243.703125 258.804688 244.308594 258.511719 245.050781 C 257.984375 246.410156 257.207031 247.5 256.304688 248.625 C 255.816406 249.660156 255.621094 250.417969 254.523438 251.1875 C 254.511719 251.1875 254.507812 251.199219 254.496094 251.203125 C 254.5 251.746094 254.390625 252.320312 254.15625 252.886719 C 253.714844 253.949219 252.945312 255.117188 252.234375 256.027344 C 251.796875 256.578125 251.554688 257.058594 251.378906 257.746094 C 250.910156 259.578125 250.644531 261.46875 249.15625 262.816406 C 248.523438 263.390625 247.800781 263.742188 247.027344 263.917969 C 245.824219 266.289062 244.847656 268.25 244.847656 271.265625 C 244.847656 271.875 244.878906 272.386719 245.308594 272.839844 C 246.109375 273.679688 247.058594 274.257812 247.898438 275.207031 C 248.789062 276.222656 251.03125 278.007812 252.207031 278.675781 C 254.445312 279.949219 255.195312 280.0625 257.664062 280.65625 C 259.179688 281.019531 260.628906 281.414062 261.765625 282.5625 C 263.425781 284.226562 263.480469 286.503906 263.0625 288.65625 C 263.601562 291.03125 262.140625 292.09375 260.054688 292.914062 C 257.84375 293.785156 253.777344 293.625 251.300781 293.722656 C 249.324219 293.804688 247.386719 293.820312 245.414062 293.527344 C 242.511719 293.097656 240.28125 291.800781 238 290.039062 C 237.859375 289.925781 237.65625 289.765625 237.429688 289.578125 C 236.820312 290.476562 235.792969 291.027344 234.539062 290.972656 L 229.292969 290.972656 L 229.144531 290.960938 C 225.222656 290.535156 224.273438 286.84375 224.761719 283.574219 C 224.839844 283.070312 224.996094 282.605469 225.21875 282.203125 C 225.039062 279.464844 225.445312 277.238281 226.636719 274.496094 C 227.675781 272.09375 228.851562 269.511719 229.28125 266.914062 C 229.546875 265.285156 229.730469 262.898438 229.691406 261.109375 C 226.730469 261.859375 223.753906 262.003906 220.777344 262.683594 C 219.855469 262.890625 219.179688 263.179688 218.339844 263.585938 C 215.882812 264.785156 213.964844 265.207031 211.226562 265.464844 C 207.214844 265.84375 200.957031 266.605469 198.109375 263.164062 C 197.261719 262.140625 196.449219 261.0625 195.742188 259.933594 C 195.117188 258.941406 194.363281 257.144531 193.605469 254.957031 C 191.972656 259.679688 189.753906 266.507812 185.070312 269.082031 C 181.328125 271.136719 174.882812 268.714844 171.347656 267.042969 C 168.335938 265.621094 164.457031 263.328125 162.367188 260.691406 C 162.222656 260.507812 162.058594 260.335938 161.886719 260.175781 C 160.484375 258.886719 157.703125 257.921875 155.949219 257.148438 C 153.34375 255.996094 151.078125 254.714844 148.992188 252.988281 L 146.875 255.511719 C 146.023438 257.882812 143.578125 259.453125 141.671875 260.925781 C 140.863281 261.550781 139.945312 262.5 139.203125 263.222656 C 138.53125 263.875 137.605469 264.714844 136.996094 265.449219 C 135.921875 267.597656 135.207031 269.875 133.863281 271.914062 C 133.105469 273.066406 133 274.484375 132.734375 275.800781 C 132.464844 277.121094 131.738281 278.414062 130.96875 279.542969 C 130.976562 280.0625 131.050781 280.695312 131.070312 281.148438 C 131.136719 282.414062 131.136719 283.683594 130.941406 284.9375 C 130.167969 289.917969 126.640625 292.359375 121.664062 292.359375 C 117.675781 292.359375 112.496094 289.691406 112.496094 285.167969 C 112.496094 281.460938 115.207031 276.113281 116.585938 272.597656 C 117.558594 270.121094 118.867188 267.585938 120.101562 265.226562 C 121.308594 262.921875 122.585938 260.550781 123.972656 258.347656 C 124.367188 257.714844 124.746094 257.0625 125.085938 256.402344 C 125.476562 255.660156 126.242188 254.078125 126.730469 252.847656 C 126.652344 252.730469 126.574219 252.605469 126.503906 252.476562 C 124.601562 248.953125 128.300781 244.878906 130.105469 242.136719 C 130.523438 241.492188 130.875 240.847656 131.175781 240.183594 C 129.246094 239.230469 127.296875 238.273438 125.519531 237.109375 C 123.660156 235.898438 122.039062 234.089844 122.699219 231.695312 C 123.230469 229.769531 124.925781 228.898438 126.6875 228.378906 C 127.144531 228.246094 127.738281 228.125 128.171875 227.949219 C 130.414062 227.039062 132.578125 225.882812 134.734375 224.792969 C 135.996094 224.15625 137.238281 223.175781 138.382812 222.34375 C 140.066406 221.117188 141.742188 219.984375 143.628906 219.089844 C 144.605469 218.628906 145.757812 217.4375 146.5 216.664062 C 147.945312 215.167969 149.308594 213.628906 150.828125 212.207031 C 153.160156 210.03125 156.238281 208.457031 158.25 206.003906 C 158.402344 205.820312 158.554688 205.636719 158.707031 205.453125 C 152.980469 206.839844 147.234375 208.125 141.476562 209.277344 C 135.96875 210.378906 130.429688 211.371094 124.871094 212.140625 C 120.304688 212.773438 115.660156 213.28125 111.050781 213.433594 C 109.738281 213.476562 108.4375 212.914062 107.429688 212.09375 C 106.140625 211.050781 105.210938 209.46875 105.355469 207.769531 C 105.578125 205.144531 107.917969 203.90625 110.246094 203.515625 C 131.460938 199.972656 152.75 194.921875 173.542969 189.246094 L 173.828125 188.863281 C 174.417969 186.8125 174.503906 184.601562 174.550781 182.480469 C 174.601562 180.191406 174.554688 177.542969 175.308594 175.367188 C 175.6875 174.28125 176.308594 173.40625 177.125 172.777344 C 176.929688 171.988281 176.703125 171.210938 176.472656 170.433594 C 174.835938 164.992188 173.410156 160.75 174.378906 155.019531 C 173.25 148.550781 174.699219 142.363281 179.683594 137.839844 C 181.746094 135.964844 184.253906 134.773438 186.714844 133.539062 C 187.714844 133.039062 189.996094 131.742188 191.324219 130.722656 C 191.199219 130.066406 191.105469 129.382812 191.039062 128.699219 C 187.058594 127.667969 183.089844 126.15625 179.183594 124.222656 L 175.769531 122.53125 L 178.371094 119.75 C 180.050781 117.945312 181.859375 116.179688 183.753906 114.46875 C 168.410156 111.660156 153.121094 108.492188 137.957031 104.855469 C 130.09375 102.972656 122.269531 100.898438 114.519531 98.597656 C 107.589844 96.542969 100.675781 94.304688 93.917969 91.734375 C 88.792969 89.78125 83.402344 87.550781 78.65625 84.785156 C 75.789062 83.113281 71.734375 80.449219 70.71875 77.085938 L 69.003906 71.421875 L 74.476562 73.640625 C 84.667969 77.765625 95.1875 81.296875 105.691406 84.519531 C 117.691406 88.203125 129.828125 91.5 142.011719 94.492188 C 159.484375 98.78125 177.378906 102.601562 195.222656 105.375 C 197.34375 103.878906 199.480469 102.464844 201.59375 101.140625 L 202.96875 100.285156 L 204.398438 101.03125 " fill-opacity="1" fill-rule="evenodd"/></g><path fill="#000000" d="M 73.421875 76.265625 C 107.390625 90.019531 163.421875 103.914062 202.558594 109.308594 L 203.183594 105.683594 L 205.585938 106.097656 L 205.011719 109.445312 C 211.175781 110.304688 238.160156 114.023438 246.503906 114.574219 C 247.769531 114.660156 249.910156 114.753906 249.914062 116.484375 C 249.914062 116.648438 249.910156 116.820312 249.902344 116.996094 C 249.871094 117.625 249.792969 118.273438 249.734375 118.71875 C 249.558594 119.988281 249.207031 120.589844 247.605469 120.496094 C 234.507812 119.722656 216.898438 117.039062 204.015625 115.222656 L 203.308594 119.320312 L 200.90625 118.902344 L 201.628906 114.714844 C 180.652344 111.226562 159.285156 107.058594 138.617188 102.105469 C 106.800781 94.476562 75.652344 83.628906 73.421875 76.265625 " fill-opacity="1" fill-rule="evenodd"/><path fill="#000000" d="M 248.132812 170.378906 L 248.789062 172.246094 C 249.316406 173.738281 248.925781 174.433594 247.378906 174.988281 C 224.761719 183.121094 201.445312 190.789062 178.371094 197.335938 C 152.757812 204.605469 126.585938 210.085938 110.960938 210.601562 C 109.070312 210.667969 105.882812 207.117188 110.707031 206.3125 C 151.425781 199.511719 206.125 184.132812 244.570312 169.300781 C 246.320312 168.628906 247.433594 168.410156 248.132812 170.378906 " fill-opacity="1" fill-rule="evenodd"/><path fill="#000000" d="M 209.796875 113.917969 C 216.679688 117.515625 216.207031 129.152344 210.183594 134.898438 C 211.289062 134.894531 216.277344 133.003906 218.949219 133.507812 C 218.992188 135.164062 218.71875 136.839844 218.347656 138.3125 C 219.738281 135.351562 220.402344 132.242188 220.78125 129.214844 C 221.074219 126.855469 220.699219 124.832031 221.175781 122.328125 C 219.324219 121.875 215.21875 120.976562 215 117.238281 C 215.105469 117.050781 215.414062 115.527344 215.410156 115.335938 C 215.394531 114.792969 215.53125 110.953125 216.292969 109.28125 C 216.609375 108.582031 218.035156 108.1875 218.605469 108.902344 C 219.777344 108.046875 220.496094 107.640625 221.957031 108.3125 C 222.953125 108.765625 223.492188 107.570312 224.53125 108.859375 C 224.972656 109.402344 226.203125 108.527344 227.53125 110.128906 C 227.816406 110.476562 228.136719 112.269531 228.136719 112.742188 C 228.484375 113.277344 228.671875 114.941406 228.671875 116.582031 C 228.875 114.601562 229.636719 112.757812 229.972656 110.746094 C 230.1875 109.472656 230.578125 108.054688 231.429688 107.839844 C 232.523438 107.574219 233.335938 108.457031 233.210938 109.042969 C 233.320312 108.84375 234.015625 108.167969 234.761719 108.308594 C 235.597656 108.464844 236.164062 109.285156 236.046875 109.585938 C 236.445312 109.089844 238.140625 109.375 238.28125 110.632812 C 241.832031 110.59375 240.796875 115.414062 240.699219 117.878906 C 240.632812 119.621094 240.628906 121.835938 239.472656 123.347656 C 238.777344 124.550781 239.074219 127.582031 239.480469 130.402344 C 240.113281 134.769531 239.976562 138.039062 239.203125 140.503906 C 238.539062 142.621094 237.398438 144.125 235.789062 145.125 C 234.183594 146.128906 232.226562 147.050781 230.210938 147.683594 C 230.558594 145.269531 230.339844 143.066406 230.339844 143.066406 C 230.238281 145.179688 229.75 147.503906 228.863281 148.371094 C 226.976562 150.226562 224.488281 151.3125 221.878906 152.054688 C 218.25 153.085938 216.671875 152.894531 214.664062 153.582031 C 211.863281 154.535156 208.3125 157.832031 206.386719 158.371094 C 206.929688 158.464844 208.375 158.230469 209.160156 157.792969 C 209.109375 158.296875 208.800781 159.84375 207.78125 160.855469 C 208.402344 161.789062 207.96875 165.34375 206.679688 166.257812 C 209.402344 168.585938 209.390625 173.070312 210.648438 175.992188 C 212 173.703125 216.21875 175.152344 217.597656 177.667969 C 219.507812 181.152344 218.375 182.773438 219.292969 188.3125 C 223.441406 191.738281 226.976562 194.324219 232.046875 198.089844 C 234.269531 199.742188 243.875 208.773438 245.519531 210.882812 C 246.097656 211.628906 248.539062 214.613281 249.011719 215.046875 C 252.785156 217.390625 255.714844 226.542969 255.714844 231.304688 C 255.714844 233.542969 259.394531 237.058594 256.929688 241.640625 C 255.53125 244.226562 256.324219 244.082031 253.980469 247.007812 C 253.667969 247.390625 253.46875 248.472656 252.910156 248.859375 C 251.132812 250.097656 248.144531 250.554688 248.140625 250.550781 C 249.824219 250.4375 250.441406 250.445312 250.796875 250.46875 C 251.613281 250.523438 251.851562 251.058594 251.546875 251.804688 C 251.160156 252.734375 250.320312 253.882812 250.015625 254.269531 C 249.53125 254.882812 248.992188 255.691406 248.640625 257.039062 C 247.984375 259.597656 247.894531 261.460938 245.21875 261.21875 C 243.824219 264.078125 242.019531 266.800781 242.019531 271.265625 C 242.019531 274.851562 244.070312 275.140625 245.777344 277.078125 C 246.84375 278.296875 249.519531 280.40625 250.816406 281.140625 C 253.535156 282.683594 254.109375 282.714844 257.007812 283.410156 C 259.472656 284.003906 261.152344 284.480469 260.179688 288.625 C 260.230469 289.628906 260.960938 289.519531 259.019531 290.28125 C 257.488281 290.886719 253.203125 290.808594 251.183594 290.894531 C 249.414062 290.96875 247.671875 291 245.828125 290.726562 C 240.667969 289.960938 238.257812 285.570312 235.210938 285.046875 C 235.210938 285.066406 235.210938 286.585938 235.210938 287.503906 C 235.210938 287.914062 235.09375 288.179688 234.617188 288.140625 L 229.441406 288.140625 C 227.230469 287.90625 227.363281 285.316406 227.558594 283.996094 C 227.664062 283.277344 227.949219 283.472656 228.179688 283.40625 C 227.78125 280.398438 228.015625 278.417969 229.226562 275.625 C 230.363281 273.007812 231.59375 270.25 232.070312 267.371094 C 232.3125 265.875 232.589844 262.335938 232.496094 260.429688 C 232.398438 258.5 230.785156 257.90625 229.105469 258.339844 C 225.792969 259.195312 223.980469 259.050781 220.152344 259.921875 C 216.550781 260.742188 216.75 262.101562 210.960938 262.644531 C 206.980469 263.019531 202.054688 263.496094 200.28125 261.359375 C 199.636719 260.574219 198.828125 259.527344 198.128906 258.425781 C 195.757812 254.660156 192.203125 240.097656 192.378906 237.046875 C 191.910156 239.191406 192.390625 244.46875 193.199219 248.570312 C 190.207031 254.300781 190.332031 257.867188 187.441406 262.480469 C 186.0625 264.675781 184.886719 265.953125 183.710938 266.597656 C 179.984375 268.644531 167.972656 263.210938 164.578125 258.929688 C 161.433594 254.960938 154.773438 255.351562 148.753906 248.875 L 144.324219 254.148438 C 144.03125 255.839844 141.652344 257.367188 139.949219 258.683594 C 139.082031 259.347656 134.839844 263.460938 134.585938 263.949219 C 133.710938 265.65625 132.667969 268.59375 131.503906 270.355469 C 130.425781 271.996094 130.332031 273.414062 129.964844 275.238281 C 129.820312 275.945312 129.375 276.917969 128.292969 278.445312 C 127.457031 279.617188 130.992188 289.53125 121.664062 289.53125 C 119.042969 289.53125 115.324219 287.808594 115.324219 285.167969 C 115.324219 282.328125 117.558594 277.867188 119.214844 273.628906 C 120.527344 270.285156 124.375 263.011719 126.359375 259.855469 C 126.789062 259.179688 127.21875 258.429688 127.59375 257.710938 C 128.097656 256.742188 130.347656 251.957031 129.863281 251.796875 C 126.75 250.777344 131.511719 245.140625 132.464844 243.695312 C 133.371094 242.316406 133.980469 241 134.742188 238.808594 C 131.941406 237.347656 129.214844 236.144531 127.0625 234.738281 C 125.507812 233.726562 125.265625 233.011719 125.421875 232.445312 C 125.746094 231.277344 128.117188 231.023438 129.234375 230.574219 C 131.472656 229.664062 133.699219 228.484375 136.003906 227.320312 C 138.640625 225.988281 141.1875 223.378906 144.835938 221.652344 C 147.273438 220.496094 149.617188 217.214844 152.757812 214.28125 C 155.085938 212.105469 158.15625 210.589844 160.433594 207.800781 C 164.628906 202.679688 172.804688 195.136719 176.390625 190.152344 C 178.023438 185.109375 176.855469 179.523438 177.976562 176.296875 C 178.410156 175.058594 179.3125 174.566406 180.359375 174.488281 C 179.34375 168.074219 175.769531 162.710938 177.25 155.015625 C 176.058594 148.957031 177.425781 143.710938 181.582031 139.9375 C 183.363281 138.316406 185.707031 137.210938 187.980469 136.070312 C 190.460938 134.828125 193.714844 132.699219 194.441406 131.621094 C 194.109375 130.558594 193.285156 127.898438 193.277344 125.324219 C 192.730469 124.253906 192.769531 121.738281 193.242188 120.597656 C 193.476562 120.027344 194 119.871094 194.453125 119.992188 C 195.089844 117.867188 196.195312 115.96875 198.03125 114.808594 C 199.488281 113.878906 201.375 113.351562 203.761719 113.351562 C 203.691406 110.4375 203.832031 107.839844 206.890625 110.246094 C 207.847656 111.003906 210.027344 108.402344 210.535156 111.011719 C 210.734375 112.023438 210.46875 113.113281 209.796875 113.917969 Z M 230.054688 131.71875 C 229.535156 128.660156 228.78125 125.269531 228.394531 122.832031 C 228.144531 121.273438 228.246094 119.980469 228.261719 119.941406 C 228.445312 119.496094 228.566406 118.75 228.625 117.902344 C 228.648438 118.441406 228.722656 118.996094 228.871094 119.570312 C 229.386719 121.597656 231.722656 121.386719 232.636719 123.636719 C 232.601562 127.589844 232.242188 129.917969 230.054688 131.71875 " fill-opacity="1" fill-rule="evenodd"/><path fill="#000000" d="M 180.429688 121.679688 C 196.082031 129.421875 211.933594 129.457031 225.566406 119.609375 C 218.082031 112.5 211.554688 107.96875 203.09375 103.542969 C 195.195312 108.488281 186.664062 115.007812 180.429688 121.679688 " fill-opacity="1" fill-rule="evenodd"/><g clip-path="url(#0fb92c33c6)"><path fill="#000000" d="M 74.90625 297.152344 C 85.96875 294.554688 109.613281 286.957031 122.035156 285.324219 C 125.335938 284.890625 134.539062 283.964844 142.375 283.046875 C 151.492188 281.972656 159.800781 281.441406 169.015625 281.371094 C 181.242188 281.28125 195.265625 282.300781 207.488281 282.515625 C 224.785156 282.816406 243.675781 284.359375 259.003906 286.476562 C 269.511719 287.929688 283.453125 291.085938 292.664062 294.226562 C 292.734375 294.398438 281.769531 292.632812 271.511719 292.410156 C 266.164062 292.292969 247.769531 290.273438 251.8125 294.914062 C 253.933594 297.339844 256.957031 300.472656 252.054688 299.925781 C 236.257812 298.160156 237.847656 295.492188 225.289062 292.527344 C 217.113281 290.597656 205.804688 288.742188 215.492188 295.292969 C 219.109375 297.738281 211.617188 303.160156 198.609375 296.410156 C 194.910156 294.492188 175.949219 289.324219 182.75 295.457031 C 185.625 298.046875 178.800781 303.390625 172.761719 296.457031 C 169.339844 292.527344 162.730469 293.113281 157.769531 292.90625 C 153.816406 292.742188 150.011719 293.425781 146.328125 294.261719 C 140.460938 295.601562 137.324219 300.226562 130.664062 302.191406 C 125.378906 303.757812 120.648438 304.972656 118.800781 302.585938 C 117.734375 301.214844 114.640625 297.351562 120.652344 294.972656 C 124.054688 293.628906 119.277344 292.988281 117.636719 293.085938 C 112.960938 293.367188 106.078125 294.039062 100.082031 294.664062 C 91.699219 295.546875 83.160156 296.96875 74.90625 297.152344 " fill-opacity="1" fill-rule="evenodd"/></g></svg>